<?xml version="1.0" encoding="UTF-8"?>
<svg version="1.1" xmlns="http://www.w3.org/2000/svg" width="2000" height="2000">
<path d="M0 0 C660 0 1320 0 2000 0 C2000 660 2000 1320 2000 2000 C1340 2000 680 2000 0 2000 C0 1340 0 680 0 0 Z " fill="#FEFEFE" transform="translate(0,0)"/>
<path d="M0 0 C3.66316813 0.00852579 7.32477627 -0.02044531 10.98779297 -0.05200195 C27.89500108 -0.10103924 44.14066619 1.61643967 60.79638672 4.44604492 C61.78949356 4.61072769 62.7826004 4.77541046 63.80580139 4.94508362 C111.90031665 12.94518098 157.63799843 33.12103745 197.79638672 60.44604492 C198.41304199 60.86450684 199.02969727 61.28296875 199.66503906 61.71411133 C208.51586333 67.76496825 216.72294793 74.39953881 224.79638672 81.44604492 C225.86953125 82.36836914 225.86953125 82.36836914 226.96435547 83.30932617 C239.96297204 94.53905884 252.84682435 106.14431211 263.53857422 119.63354492 C265.50974058 122.08897706 267.54955234 124.46179491 269.62695312 126.82714844 C280.73603149 139.56920936 290.327046 153.83296114 298.79638672 168.44604492 C299.16119141 169.07027344 299.52599609 169.69450195 299.90185547 170.33764648 C316.18354657 198.34377795 328.82130607 228.02121772 336.79638672 259.44604492 C337.12630615 260.73309326 337.12630615 260.73309326 337.46289062 262.04614258 C340.24895463 273.09023929 342.35407012 284.18317103 344.04638672 295.44604492 C344.20961426 296.53095215 344.3728418 297.61585938 344.54101562 298.73364258 C346.74734371 314.19203712 347.03729696 329.54676088 347.04638672 345.13354492 C347.04739883 346.69798843 347.04739883 346.69798843 347.0484314 348.29403687 C347.03177335 364.53687537 346.47391357 380.39124177 343.79638672 396.44604492 C343.61946289 397.52499023 343.44253906 398.60393555 343.26025391 399.71557617 C334.18476325 453.57289208 313.13623363 507.54775628 279.18261719 550.67456055 C277.81529374 552.42188336 276.4758881 554.18720114 275.14404297 555.96166992 C270.7071025 561.85645018 266.10776459 567.51509837 261.09716797 572.93432617 C259.20894983 574.99565769 257.37848481 577.08666643 255.55419922 579.20385742 C251.66833255 583.65666221 247.54784791 587.84220638 243.35888672 592.00854492 C242.64667969 592.72461914 241.93447266 593.44069336 241.20068359 594.1784668 C236.56392634 598.80680124 231.78889682 603.2047827 226.79638672 607.44604492 C226.20092041 607.95353271 225.6054541 608.46102051 224.99194336 608.98388672 C177.07680481 649.43310141 118.37486961 676.33110153 56.48388672 686.32104492 C55.22785645 686.5242334 53.97182617 686.72742187 52.67773438 686.93676758 C36.26736609 689.45022406 20.04880959 689.65274745 3.48388672 689.63354492 C2.36501068 689.632276 1.24613464 689.63100708 0.09335327 689.62969971 C-82.15316654 689.45144576 -164.64887073 661.12569804 -225.72705078 604.71166992 C-227.77576468 602.83745216 -229.85452021 601.01989243 -231.95751953 599.20776367 C-236.41147527 595.32042929 -240.59848113 591.19880675 -244.76611328 587.00854492 C-245.4821875 586.29633789 -246.19826172 585.58413086 -246.93603516 584.8503418 C-281.81965892 549.90323556 -307.92827821 505.52877915 -324.25585938 459.13696289 C-325.11301317 456.70328203 -325.99330919 454.27944963 -326.87939453 451.85620117 C-331.47277228 439.01070781 -334.33900186 425.7646864 -337.20361328 412.44604492 C-337.5159706 411.05799197 -337.8284473 409.66996588 -338.14111328 408.28198242 C-342.40974923 387.87256677 -343.48704701 367.04904655 -343.45361328 346.25854492 C-343.45283783 345.458591 -343.45206238 344.65863708 -343.45126343 343.83444214 C-343.40402903 327.0632125 -342.91500876 310.39044724 -340.14111328 293.82104492 C-339.92559814 292.5190918 -339.71008301 291.21713867 -339.48803711 289.87573242 C-330.33644131 236.12930137 -309.81593533 185.31346128 -277.20361328 141.44604492 C-276.47916016 140.44702148 -275.75470703 139.44799805 -275.00830078 138.41870117 C-269.13461108 130.40816737 -262.74938443 122.90666878 -256.20361328 115.44604492 C-255.45337891 114.58237305 -254.70314453 113.71870117 -253.93017578 112.82885742 C-245.03961989 102.74848736 -235.50574367 93.08591787 -225.20361328 84.44604492 C-224.29998047 83.65327148 -223.39634766 82.86049805 -222.46533203 82.04370117 C-214.15020799 74.78971498 -205.37676755 68.27899523 -196.34375 61.94799805 C-195.0259385 61.02315475 -193.71164384 60.09324666 -192.40332031 59.1550293 C-155.05958998 32.38234612 -109.90910145 14.37249811 -64.95361328 5.75854492 C-63.96852783 5.5679248 -62.98344238 5.37730469 -61.96850586 5.1809082 C-41.40660005 1.46421673 -20.88022256 -0.07364913 0 0 Z " fill="#0480C4" transform="translate(998.20361328125,604.553955078125)"/>
<path d="M0 0 C1.88947439 1.64417421 3.75744385 3.30526526 5.6015625 5 C9.06222431 3.48397613 11.52523739 1.42589493 14.3515625 -1.0625 C34.93425827 -18.08227906 60.61963613 -25.10316528 87.00683594 -22.7890625 C98.32681471 -21.58838978 108.3365023 -18.94060857 118.6015625 -14 C119.23578125 -13.69932617 119.87 -13.39865234 120.5234375 -13.08886719 C129.49896133 -8.76715246 137.21970061 -3.76487045 144.6015625 3 C145.98988281 4.24910156 145.98988281 4.24910156 147.40625 5.5234375 C167.60344813 24.60167729 177.09784229 51.09412288 177.9140625 78.4375 C177.58710282 94.96939889 172.93066112 110.94881117 165.4765625 125.625 C165.00065674 126.59083008 165.00065674 126.59083008 164.51513672 127.57617188 C157.99654297 139.80423854 147.06786189 149.82701085 137.32470703 159.50390625 C136.13866353 160.6893837 134.95306402 161.87530548 133.76786804 163.06163025 C130.58886004 166.24120551 127.40378007 169.41463131 124.21746683 172.58688354 C120.86764963 175.92407342 117.52361471 179.26704798 114.17892456 182.609375 C107.85688797 188.92522639 101.52977884 195.23597012 95.20076835 201.54483223 C88.00870032 208.7145002 80.82234587 215.88988345 73.6364615 223.06574821 C61.3554758 235.32941435 49.07030421 247.58887375 36.7802887 259.8434906 C36.26182023 260.36047988 35.74335176 260.87746916 35.20917213 261.41012478 C33.83141698 262.78391721 32.45359968 264.15764732 31.07577705 265.53137207 C29.35963227 267.2436419 27.64860641 268.96105164 25.94166374 270.68249512 C19.89410632 276.67165645 15.53227266 279.37110041 6.9765625 279.5 C5.98462891 279.561875 5.98462891 279.561875 4.97265625 279.625 C-4.2162033 279.76609573 -11.06156783 273.64190805 -17.35510254 267.54454041 C-19.59908969 265.33626306 -21.81685052 263.102904 -24.03320312 260.86694336 C-25.26883635 259.63510011 -26.50532632 258.40411575 -27.74259949 257.17391968 C-31.0803601 253.85004729 -34.40551688 250.51383131 -37.72805595 247.174752 C-41.22306958 243.66580851 -44.72831561 240.16711133 -48.23205566 236.66688538 C-54.11632175 230.7853164 -59.9924764 224.89573828 -65.86376953 219.0012207 C-72.62543188 212.21299527 -79.39938728 205.43723431 -86.18021822 198.66816038 C-92.73114334 192.12806692 -99.2734791 185.57944533 -105.81193542 179.02688789 C-108.58089717 176.25220854 -111.35269851 173.48041422 -114.12690735 170.71098137 C-117.40398144 167.4387283 -120.67337181 164.15897575 -123.93731117 160.87362289 C-125.12705784 159.67837565 -126.31926589 158.48557184 -127.51428795 157.29559898 C-139.4151909 145.43863303 -149.0408307 133.19431358 -156.3984375 118 C-156.80835938 117.1853125 -157.21828125 116.370625 -157.640625 115.53125 C-167.95394148 92.82596412 -166.9196737 64.620583 -158.52148438 41.59570312 C-154.49913727 31.54410538 -149.0179337 22.54350201 -142.3984375 14 C-141.73585938 13.14148438 -141.07328125 12.28296875 -140.390625 11.3984375 C-124.53840996 -7.5880558 -100.77461554 -19.2795907 -76.53515625 -22.71875 C-48.9931523 -25.18826966 -21.4457077 -17.88306571 0 0 Z " fill="#0580C4" transform="translate(993.3984375,751)"/>
<path d="M0 0 C5.81649153 2.50133072 10.39966837 8.20105093 12.75 14 C14.49377343 24.07699837 10.75257613 33.24766885 7.54931641 42.61132812 C6.35107426 46.19214705 5.29535578 49.80965198 4.25 53.4375 C3.84291573 54.83607375 3.43535723 56.23450955 3.02734375 57.6328125 C2.82093262 58.34083008 2.61452148 59.04884766 2.40185547 59.77832031 C1.22331477 63.7950695 0.01749203 67.80362152 -1.1875 71.8125 C-1.43959229 72.65119629 -1.69168457 73.48989258 -1.95141602 74.35400391 C-2.46361613 76.05764374 -2.97590476 77.76125696 -3.48828125 79.46484375 C-4.47872076 82.76122961 -5.46532911 86.05875515 -6.45141602 89.35644531 C-6.94229994 90.9943532 -7.43497749 92.63172459 -7.92944336 94.26855469 C-9.30772617 98.83219229 -10.6566822 103.40234587 -11.97265625 107.984375 C-16.40722038 123.27872118 -21.16345122 134.2987754 -32.23828125 145.8125 C-34.90113368 148.59141906 -37.34820745 151.49010332 -39.75 154.5 C-43.56994011 159.26108478 -47.63938819 163.71273025 -51.80859375 168.1640625 C-54.92568554 171.51116869 -57.88581113 174.93014141 -60.75 178.5 C-64.56372507 183.2533385 -68.62520694 187.69905472 -72.78881836 192.14208984 C-76.87278912 196.52587983 -80.67562494 201.07052367 -84.41015625 205.7578125 C-85.9437906 207.62682761 -87.50235051 209.33401638 -89.25 211 C-87.93 211.33 -86.61 211.66 -85.25 212 C-85.25 230.48 -85.25 248.96 -85.25 268 C-129.8 268 -174.35 268 -220.25 268 C-220.25 249.52 -220.25 231.04 -220.25 212 C-216.29 212 -212.33 212 -208.25 212 C-208.20536621 211.14776855 -208.16073242 210.29553711 -208.11474609 209.41748047 C-207.52871435 199.46023234 -206.46108446 189.60572937 -205.203125 179.71240234 C-204.87637599 177.13585029 -204.5588381 174.5582791 -204.2421875 171.98046875 C-203.2290931 163.84402099 -202.11983186 155.72926442 -200.75 147.64453125 C-200.63911041 146.96524567 -200.52822083 146.28596008 -200.41397095 145.58609009 C-198.00938045 131.96847623 -189.52185431 121.53554206 -178.58789062 113.50830078 C-174.20936875 110.68347746 -169.45444614 108.69937171 -164.6875 106.625 C-162.54155274 105.66330976 -160.39701572 104.69846645 -158.25390625 103.73046875 C-157.22152832 103.26431152 -156.18915039 102.7981543 -155.12548828 102.31787109 C-145.51607766 97.91376186 -136.69037441 92.79553231 -128.18530273 86.51953125 C-115.72918591 77.39422333 -104.36904674 75.77816268 -89.25 77 C-83.55389978 78.1596491 -78.50680469 79.94162853 -73.75 83.3125 C-71.47476193 85.23652691 -71.47476193 85.23652691 -69.26663208 84.79917908 C-61.62285885 81.76999805 -57.93574881 69.76370675 -54.56348038 62.77479362 C-53.4863536 60.54542957 -52.3970232 58.32241613 -51.3041687 56.10072327 C-48.20168136 49.78960198 -45.11642811 43.47022032 -42.05029297 37.14135742 C-40.16566185 33.25345742 -38.26315639 29.37473551 -36.34957504 25.50100899 C-35.62915939 24.0336906 -34.91551062 22.56302791 -34.20911026 21.08891106 C-27.11599412 6.29407041 -18.07430603 -5.47171374 0 0 Z " fill="#0580C4" transform="translate(1231.25,913)"/>
<path d="M0 0 C7.62805439 4.55107185 11.12017922 11.61600618 15.0546875 19.296875 C15.83755882 20.81122635 15.83755882 20.81122635 16.63624573 22.35617065 C20.43870372 29.74360242 24.14906476 37.17549232 27.828125 44.625 C28.33904694 45.65921082 28.84996887 46.69342163 29.37637329 47.75897217 C31.45998 51.98091894 33.54224105 56.20342209 35.61010742 60.43310547 C37.1528272 63.58499043 38.70812154 66.73039995 40.265625 69.875 C40.72714462 70.82698273 41.18866425 71.77896545 41.66416931 72.75979614 C44.11802197 77.68754502 46.39283142 81.45289096 50.58203125 85.0546875 C54.09321277 83.68817361 57.49152258 82.17000855 60.89453125 80.5546875 C73.30743915 74.95152401 84.51839614 74.61848516 97.609375 78.7890625 C100.94582019 80.20957267 103.61679938 81.96504519 106.58203125 84.0546875 C119.51514907 92.94136823 132.22263851 101.16758417 146.83740234 106.99511719 C161.84587106 112.99380443 172.40839519 121.32578902 179.41288757 136.23899841 C183.10911107 145.14074109 184.26658955 154.80052537 185.40625 164.30078125 C185.55737747 165.51492203 185.70850494 166.72906281 185.86421204 167.97999573 C186.17932725 170.5232612 186.49090527 173.06696725 186.79907227 175.61108398 C187.27129612 179.506747 187.75485574 183.40087812 188.24023438 187.29492188 C188.54623151 189.77596053 188.85159271 192.25707771 189.15625 194.73828125 C189.29995529 195.89976181 189.44366058 197.06124237 189.59172058 198.25791931 C189.72218277 199.33997147 189.85264496 200.42202362 189.98706055 201.53686523 C190.160019 202.95816994 190.160019 202.95816994 190.33647156 204.40818787 C190.57207899 206.94742788 190.58203125 209.50454031 190.58203125 212.0546875 C194.54203125 212.0546875 198.50203125 212.0546875 202.58203125 212.0546875 C202.58203125 230.5346875 202.58203125 249.0146875 202.58203125 268.0546875 C158.03203125 268.0546875 113.48203125 268.0546875 67.58203125 268.0546875 C67.58203125 249.5746875 67.58203125 231.0946875 67.58203125 212.0546875 C68.90203125 211.7246875 70.22203125 211.3946875 71.58203125 211.0546875 C70.82019531 210.24386719 70.05835938 209.43304687 69.2734375 208.59765625 C64.38715924 203.36781155 59.56290624 198.14134011 55.08203125 192.5546875 C51.73901364 188.38802787 48.23089781 184.45046984 44.58203125 180.5546875 C40.14370451 175.81602286 35.99060875 170.93349424 31.92578125 165.8671875 C29.24992718 162.65616262 26.43814901 159.60470601 23.58203125 156.5546875 C18.31657607 150.92239729 13.37329967 145.09876263 8.58203125 139.0546875 C7.75251953 138.08015625 7.75251953 138.08015625 6.90625 137.0859375 C-1.44583268 126.89941806 -4.49053001 113.84492738 -7.78808594 101.38037109 C-8.79967802 97.6453222 -9.91887765 93.94466011 -11.04296875 90.2421875 C-13.07126522 83.54076746 -15.0805638 76.83404877 -17.0703125 70.12109375 C-17.30790283 69.31991623 -17.54549316 68.51873871 -17.7902832 67.69328308 C-18.75498652 64.43989385 -19.71962575 61.18648747 -20.68218994 57.9324646 C-21.36518162 55.62392855 -22.04951999 53.31579639 -22.734375 51.0078125 C-22.95566071 50.26022171 -23.17694641 49.51263092 -23.40493774 48.74238586 C-24.5155135 45.00953988 -25.65426532 41.28898353 -26.84863281 37.58203125 C-27.07872543 36.86440613 -27.30881805 36.14678101 -27.54588318 35.40740967 C-28.1761889 33.45232846 -28.81496322 31.49998318 -29.4543457 29.54785156 C-31.11110819 23.54203508 -31.8212816 17.61648579 -29.49609375 11.71484375 C-23.48197 1.22917994 -11.84140946 -4.62943633 0 0 Z " fill="#0580C4" transform="translate(786.41796875,912.9453125)"/>
<path d="M0 0 C5.81649153 2.50133072 10.39966837 8.20105093 12.75 14 C14.49377343 24.07699837 10.75257613 33.24766885 7.54931641 42.61132812 C6.35107426 46.19214705 5.29535578 49.80965198 4.25 53.4375 C3.84291573 54.83607375 3.43535723 56.23450955 3.02734375 57.6328125 C2.82093262 58.34083008 2.61452148 59.04884766 2.40185547 59.77832031 C1.22331477 63.7950695 0.01749203 67.80362152 -1.1875 71.8125 C-1.43959229 72.65119629 -1.69168457 73.48989258 -1.95141602 74.35400391 C-2.46361613 76.05764374 -2.97590476 77.76125696 -3.48828125 79.46484375 C-4.47872076 82.76122961 -5.46532911 86.05875515 -6.45141602 89.35644531 C-6.94229994 90.9943532 -7.43497749 92.63172459 -7.92944336 94.26855469 C-9.30772617 98.83219229 -10.6566822 103.40234587 -11.97265625 107.984375 C-16.40722038 123.27872118 -21.16345122 134.2987754 -32.23828125 145.8125 C-34.90113368 148.59141906 -37.34820745 151.49010332 -39.75 154.5 C-43.56994011 159.26108478 -47.63938819 163.71273025 -51.80859375 168.1640625 C-54.92568554 171.51116869 -57.88581113 174.93014141 -60.75 178.5 C-64.56372507 183.2533385 -68.62520694 187.69905472 -72.78881836 192.14208984 C-76.87278912 196.52587983 -80.67562494 201.07052367 -84.41015625 205.7578125 C-85.9437906 207.62682761 -87.50235051 209.33401638 -89.25 211 C-87.93 211.33 -86.61 211.66 -85.25 212 C-85.25 230.48 -85.25 248.96 -85.25 268 C-129.8 268 -174.35 268 -220.25 268 C-220.25 249.52 -220.25 231.04 -220.25 212 C-216.29 212 -212.33 212 -208.25 212 C-208.20536621 211.14776855 -208.16073242 210.29553711 -208.11474609 209.41748047 C-207.52871435 199.46023234 -206.46108446 189.60572937 -205.203125 179.71240234 C-204.87637599 177.13585029 -204.5588381 174.5582791 -204.2421875 171.98046875 C-203.2290931 163.84402099 -202.11983186 155.72926442 -200.75 147.64453125 C-200.63911041 146.96524567 -200.52822083 146.28596008 -200.41397095 145.58609009 C-198.00938045 131.96847623 -189.52185431 121.53554206 -178.58789062 113.50830078 C-174.20936875 110.68347746 -169.45444614 108.69937171 -164.6875 106.625 C-162.54155274 105.66330976 -160.39701572 104.69846645 -158.25390625 103.73046875 C-157.22152832 103.26431152 -156.18915039 102.7981543 -155.12548828 102.31787109 C-145.51607766 97.91376186 -136.69037441 92.79553231 -128.18530273 86.51953125 C-115.72918591 77.39422333 -104.36904674 75.77816268 -89.25 77 C-83.55389978 78.1596491 -78.50680469 79.94162853 -73.75 83.3125 C-71.47476193 85.23652691 -71.47476193 85.23652691 -69.26663208 84.79917908 C-61.62285885 81.76999805 -57.93574881 69.76370675 -54.56348038 62.77479362 C-53.4863536 60.54542957 -52.3970232 58.32241613 -51.3041687 56.10072327 C-48.20168136 49.78960198 -45.11642811 43.47022032 -42.05029297 37.14135742 C-40.16566185 33.25345742 -38.26315639 29.37473551 -36.34957504 25.50100899 C-35.62915939 24.0336906 -34.91551062 22.56302791 -34.20911026 21.08891106 C-27.11599412 6.29407041 -18.07430603 -5.47171374 0 0 Z M-20.08821106 18.11552429 C-20.94137154 19.86564568 -20.94137154 19.86564568 -21.81176758 21.65112305 C-22.29101936 22.62298805 -22.29101936 22.62298805 -22.779953 23.61448669 C-23.46803494 25.01290749 -24.15150924 26.41360316 -24.83078957 27.81632042 C-25.91143158 30.04659843 -27.00515975 32.27001816 -28.10246277 34.49214172 C-30.82668917 40.01510683 -33.53073279 45.54787727 -36.23101807 51.08258057 C-38.5133181 55.75981735 -40.80550025 60.43193628 -43.11148643 65.09754372 C-44.18015621 67.26959571 -45.23426212 69.44830375 -46.28804016 71.62760925 C-50.17070287 79.54926362 -54.38826418 86.32998107 -60.25 93 C-61.32375779 94.32323895 -62.39253467 95.65055895 -63.453125 96.984375 C-77.45788677 114.3252194 -91.44610715 131.37838644 -109.25 145 C-110.18440918 145.71712158 -110.18440918 145.71712158 -111.13769531 146.44873047 C-113.16674344 147.99814095 -115.20591691 149.53299069 -117.25 151.0625 C-117.89759277 151.55250488 -118.54518555 152.04250977 -119.21240234 152.54736328 C-123.89962575 156 -123.89962575 156 -127.25 156 C-129.5 153.1875 -129.5 153.1875 -131.25 150 C-129.92054015 146.01162044 -128.13763616 145.3898384 -124.625 143.125 C-108.70008703 132.49356369 -94.52921711 118.64552457 -82.25 104 C-81.10503975 102.66591685 -79.95923964 101.33255394 -78.8125 100 C-77.966875 99.01 -77.12125 98.02 -76.25 97 C-77.99810075 92.80104442 -79.96548269 91.72030162 -83.98046875 89.8828125 C-93.876629 86.03335946 -103.65757438 85.67288034 -113.5625 89.62109375 C-117.2301602 91.50290196 -120.08735064 93.99856544 -123.21484375 96.66015625 C-136.27828726 106.73094475 -152.06328554 113.80914699 -167.25 120.0625 C-177.09383136 124.44176734 -183.44289998 131.59558752 -187.71655273 141.34594727 C-189.82258549 147.05487351 -190.37306686 152.95525605 -191.07421875 158.96875 C-191.22534622 160.20363159 -191.37647369 161.43851318 -191.53218079 162.71081543 C-191.92909965 165.97507242 -192.31689375 169.24025037 -192.70092773 172.50604248 C-193.093381 175.81384841 -193.50224983 179.11960587 -193.90820312 182.42578125 C-194.21447057 184.96082545 -194.51983936 187.49597841 -194.82421875 190.03125 C-194.96792404 191.2116687 -195.11162933 192.3920874 -195.25968933 193.60827637 C-195.39015152 194.72303345 -195.52061371 195.83779053 -195.6550293 196.98632812 C-195.77033493 197.95703247 -195.88564056 198.92773682 -196.00444031 199.92785645 C-196.30088186 203.63657186 -196.28817048 207.2798742 -196.25 211 C-184.44528051 211.27883048 -172.64135207 211.49165173 -160.83400249 211.62174606 C-155.35030479 211.68420802 -149.86886992 211.76882562 -144.38647461 211.90527344 C-139.08889087 212.0362867 -133.79347373 212.10753584 -128.4943943 212.13852692 C-126.47960115 212.16059116 -124.46491826 212.20368268 -122.45105553 212.26876068 C-110.85465704 212.99163018 -110.85465704 212.99163018 -100.64859009 208.43981934 C-97.77806025 205.57146251 -95.51297392 202.36564879 -93.25 199 C-91.78553868 197.17559781 -90.30861992 195.36103147 -88.8125 193.5625 C-88.09191406 192.66660156 -87.37132812 191.77070312 -86.62890625 190.84765625 C-83.4527143 187.04561367 -80.07729178 183.45096248 -76.69165039 179.83618164 C-73.57446055 176.48900673 -70.61426202 173.06994977 -67.75 169.5 C-64.40697842 165.33333543 -60.89883069 161.39582142 -57.25 157.5 C-52.77359861 152.71982773 -48.56442117 147.80456579 -44.4765625 142.68359375 C-41.37321309 138.94324104 -38.00874335 135.46767091 -34.609375 131.99609375 C-29.29515986 125.24774439 -26.4435232 117.3045102 -24.02026367 109.14746094 C-23.73667999 108.21929565 -23.45309631 107.29113037 -23.16091919 106.33483887 C-22.23757261 103.30400634 -21.32734067 100.26942702 -20.41796875 97.234375 C-19.77547954 95.11053043 -19.13242933 92.98685551 -18.48884583 90.86334229 C-17.1475986 86.43049234 -15.81280297 81.99576628 -14.48266602 77.55957031 C-12.77853641 71.87777771 -11.05880779 66.20084906 -9.33433056 60.5252037 C-8.0062773 56.14842823 -6.68621509 51.76927453 -5.36858559 47.38935089 C-4.73744535 45.29467703 -4.10388795 43.20072987 -3.46785545 41.10753632 C-2.58139704 38.18570444 -1.70569024 35.26085957 -0.83276367 32.33496094 C-0.56944748 31.47457214 -0.30613129 30.61418335 -0.03483582 29.72772217 C1.55851205 24.3339767 2.93174308 19.59983477 0.5 14.25 C-1.42542891 11.77444854 -2.26077355 10.88868894 -5.25 10 C-13.07708052 9.13032439 -15.9414869 11.08737603 -20.08821106 18.11552429 Z " fill="#F6FAFD" transform="translate(1231.25,913)"/>
<path d="M0 0 C7.62805439 4.55107185 11.12017922 11.61600618 15.0546875 19.296875 C15.83755882 20.81122635 15.83755882 20.81122635 16.63624573 22.35617065 C20.43870372 29.74360242 24.14906476 37.17549232 27.828125 44.625 C28.33904694 45.65921082 28.84996887 46.69342163 29.37637329 47.75897217 C31.45998 51.98091894 33.54224105 56.20342209 35.61010742 60.43310547 C37.1528272 63.58499043 38.70812154 66.73039995 40.265625 69.875 C40.72714462 70.82698273 41.18866425 71.77896545 41.66416931 72.75979614 C44.11802197 77.68754502 46.39283142 81.45289096 50.58203125 85.0546875 C54.09321277 83.68817361 57.49152258 82.17000855 60.89453125 80.5546875 C73.30743915 74.95152401 84.51839614 74.61848516 97.609375 78.7890625 C100.94582019 80.20957267 103.61679938 81.96504519 106.58203125 84.0546875 C119.51514907 92.94136823 132.22263851 101.16758417 146.83740234 106.99511719 C161.84587106 112.99380443 172.40839519 121.32578902 179.41288757 136.23899841 C183.10911107 145.14074109 184.26658955 154.80052537 185.40625 164.30078125 C185.55737747 165.51492203 185.70850494 166.72906281 185.86421204 167.97999573 C186.17932725 170.5232612 186.49090527 173.06696725 186.79907227 175.61108398 C187.27129612 179.506747 187.75485574 183.40087812 188.24023438 187.29492188 C188.54623151 189.77596053 188.85159271 192.25707771 189.15625 194.73828125 C189.29995529 195.89976181 189.44366058 197.06124237 189.59172058 198.25791931 C189.72218277 199.33997147 189.85264496 200.42202362 189.98706055 201.53686523 C190.160019 202.95816994 190.160019 202.95816994 190.33647156 204.40818787 C190.57207899 206.94742788 190.58203125 209.50454031 190.58203125 212.0546875 C194.54203125 212.0546875 198.50203125 212.0546875 202.58203125 212.0546875 C202.58203125 230.5346875 202.58203125 249.0146875 202.58203125 268.0546875 C158.03203125 268.0546875 113.48203125 268.0546875 67.58203125 268.0546875 C67.58203125 249.5746875 67.58203125 231.0946875 67.58203125 212.0546875 C68.90203125 211.7246875 70.22203125 211.3946875 71.58203125 211.0546875 C70.82019531 210.24386719 70.05835938 209.43304687 69.2734375 208.59765625 C64.38715924 203.36781155 59.56290624 198.14134011 55.08203125 192.5546875 C51.73901364 188.38802787 48.23089781 184.45046984 44.58203125 180.5546875 C40.14370451 175.81602286 35.99060875 170.93349424 31.92578125 165.8671875 C29.24992718 162.65616262 26.43814901 159.60470601 23.58203125 156.5546875 C18.31657607 150.92239729 13.37329967 145.09876263 8.58203125 139.0546875 C7.75251953 138.08015625 7.75251953 138.08015625 6.90625 137.0859375 C-1.44583268 126.89941806 -4.49053001 113.84492738 -7.78808594 101.38037109 C-8.79967802 97.6453222 -9.91887765 93.94466011 -11.04296875 90.2421875 C-13.07126522 83.54076746 -15.0805638 76.83404877 -17.0703125 70.12109375 C-17.30790283 69.31991623 -17.54549316 68.51873871 -17.7902832 67.69328308 C-18.75498652 64.43989385 -19.71962575 61.18648747 -20.68218994 57.9324646 C-21.36518162 55.62392855 -22.04951999 53.31579639 -22.734375 51.0078125 C-22.95566071 50.26022171 -23.17694641 49.51263092 -23.40493774 48.74238586 C-24.5155135 45.00953988 -25.65426532 41.28898353 -26.84863281 37.58203125 C-27.07872543 36.86440613 -27.30881805 36.14678101 -27.54588318 35.40740967 C-28.1761889 33.45232846 -28.81496322 31.49998318 -29.4543457 29.54785156 C-31.11110819 23.54203508 -31.8212816 17.61648579 -29.49609375 11.71484375 C-23.48197 1.22917994 -11.84140946 -4.62943633 0 0 Z M-18.41796875 14.0546875 C-20.94764687 19.11404374 -19.12749966 24.88432927 -17.56958008 30.00537109 C-17.37278656 30.66183624 -17.17599304 31.31830139 -16.97323608 31.99465942 C-16.32456896 34.15034544 -15.66237384 36.30161516 -15 38.453125 C-14.54029058 39.97155111 -14.08145925 41.49024332 -13.62345886 43.00918579 C-12.41565288 47.00666158 -11.19642925 51.00056311 -9.97460938 54.99377441 C-8.75064106 59.0003833 -7.53665401 63.01001037 -6.32226562 67.01953125 C-4.94697422 71.55925506 -3.57091339 76.09871919 -2.18623352 80.6355896 C0.41848716 89.17449015 2.97061695 97.72723851 5.47773743 106.2953186 C10.05162467 121.86629174 15.95548373 131.73342538 27.125 143.38671875 C29.97356668 146.37236163 32.63060019 149.45326103 35.20703125 152.6796875 C39.49674411 158.04983177 44.12548756 163.04649423 48.80859375 168.0703125 C53.11308639 172.68822511 57.2251553 177.46230357 61.3203125 182.265625 C66.82999809 188.72307965 72.38073194 195.11540623 78.1328125 201.359375 C80.58203125 204.0546875 80.58203125 204.0546875 81.62091064 206.04043579 C83.3513796 208.85137249 84.76855935 210.27777921 87.58203125 212.0546875 C94.3205092 213.60368819 101.53080306 212.98214608 108.390625 212.8359375 C110.44326062 212.82100623 112.49592486 212.8096234 114.54859924 212.80163574 C119.93667083 212.77117154 125.32300174 212.69265723 130.71038818 212.60400391 C136.21358698 212.52198932 141.71706861 212.4855909 147.22070312 212.4453125 C158.00857496 212.35965794 168.79515805 212.2232197 179.58203125 212.0546875 C178.24784051 198.4751852 176.80936261 184.92342259 175.08740234 171.38696289 C174.83143452 169.3548281 174.58154275 167.32191972 174.33740234 165.28833008 C173.97683793 162.28800437 173.59785513 159.29050172 173.21484375 156.29296875 C173.11052032 155.39596756 173.0061969 154.49896637 172.89871216 153.57478333 C171.78145568 145.14146701 168.77406487 137.83317584 163.58203125 131.0546875 C163.14375 130.45140625 162.70546875 129.848125 162.25390625 129.2265625 C157.2081217 123.23764066 150.94763891 120.70262642 143.92382812 117.69213867 C129.5076578 111.5113496 115.40022407 104.69498585 103.0390625 94.96875 C94.0016673 87.92848983 85.83188053 86.93571239 74.64355469 87.79785156 C68.34520834 88.58253422 63.50144546 91.20519073 58.58203125 95.0546875 C67.59643989 116.25903509 94.58393439 136.14318233 113.58203125 148.0546875 C112.24869792 151.38802083 110.91536458 154.72135417 109.58203125 158.0546875 C87.80937429 143.11369057 67.68392192 126.17494944 51.58203125 105.0546875 C50.66358115 103.88894936 49.7428511 102.72500528 48.8203125 101.5625 C46.05603631 98.07365673 43.30651675 94.57468955 40.58203125 91.0546875 C40.08936768 90.43271484 39.5967041 89.81074219 39.08911133 89.16992188 C35.33905244 84.34132475 32.41190082 79.37264505 29.64453125 73.9296875 C29.16508057 73.00188477 28.68562988 72.07408203 28.19165039 71.11816406 C24.32462714 63.58645844 20.56083796 56.00354258 16.79296875 48.421875 C16.02396492 46.87649551 16.02396492 46.87649551 15.23942566 45.29989624 C12.62294885 40.04127366 10.01336529 34.77944868 7.41625977 29.51123047 C6.43917272 27.54123803 5.46188624 25.57134449 4.484375 23.6015625 C3.81001907 22.22482864 3.81001907 22.22482864 3.12203979 20.82028198 C2.4891655 19.5494426 2.4891655 19.5494426 1.84350586 18.25292969 C1.47776962 17.51177917 1.11203339 16.77062866 0.73521423 16.00701904 C-1.23023223 12.67953053 -2.72367428 11.28611899 -6.41796875 10.0546875 C-11.92585653 9.54469789 -14.47710725 10.113826 -18.41796875 14.0546875 Z " fill="#F7FBFD" transform="translate(786.41796875,912.9453125)"/>
<path d="M0 0 C1.88947439 1.64417421 3.75744385 3.30526526 5.6015625 5 C9.06222431 3.48397613 11.52523739 1.42589493 14.3515625 -1.0625 C34.93425827 -18.08227906 60.61963613 -25.10316528 87.00683594 -22.7890625 C98.32681471 -21.58838978 108.3365023 -18.94060857 118.6015625 -14 C119.23578125 -13.69932617 119.87 -13.39865234 120.5234375 -13.08886719 C129.49896133 -8.76715246 137.21970061 -3.76487045 144.6015625 3 C145.98988281 4.24910156 145.98988281 4.24910156 147.40625 5.5234375 C167.60344813 24.60167729 177.09784229 51.09412288 177.9140625 78.4375 C177.58710282 94.96939889 172.93066112 110.94881117 165.4765625 125.625 C165.00065674 126.59083008 165.00065674 126.59083008 164.51513672 127.57617188 C157.99654297 139.80423854 147.06786189 149.82701085 137.32470703 159.50390625 C136.13866353 160.6893837 134.95306402 161.87530548 133.76786804 163.06163025 C130.58886004 166.24120551 127.40378007 169.41463131 124.21746683 172.58688354 C120.86764963 175.92407342 117.52361471 179.26704798 114.17892456 182.609375 C107.85688797 188.92522639 101.52977884 195.23597012 95.20076835 201.54483223 C88.00870032 208.7145002 80.82234587 215.88988345 73.6364615 223.06574821 C61.3554758 235.32941435 49.07030421 247.58887375 36.7802887 259.8434906 C36.26182023 260.36047988 35.74335176 260.87746916 35.20917213 261.41012478 C33.83141698 262.78391721 32.45359968 264.15764732 31.07577705 265.53137207 C29.35963227 267.2436419 27.64860641 268.96105164 25.94166374 270.68249512 C19.89410632 276.67165645 15.53227266 279.37110041 6.9765625 279.5 C5.98462891 279.561875 5.98462891 279.561875 4.97265625 279.625 C-4.2162033 279.76609573 -11.06156783 273.64190805 -17.35510254 267.54454041 C-19.59908969 265.33626306 -21.81685052 263.102904 -24.03320312 260.86694336 C-25.26883635 259.63510011 -26.50532632 258.40411575 -27.74259949 257.17391968 C-31.0803601 253.85004729 -34.40551688 250.51383131 -37.72805595 247.174752 C-41.22306958 243.66580851 -44.72831561 240.16711133 -48.23205566 236.66688538 C-54.11632175 230.7853164 -59.9924764 224.89573828 -65.86376953 219.0012207 C-72.62543188 212.21299527 -79.39938728 205.43723431 -86.18021822 198.66816038 C-92.73114334 192.12806692 -99.2734791 185.57944533 -105.81193542 179.02688789 C-108.58089717 176.25220854 -111.35269851 173.48041422 -114.12690735 170.71098137 C-117.40398144 167.4387283 -120.67337181 164.15897575 -123.93731117 160.87362289 C-125.12705784 159.67837565 -126.31926589 158.48557184 -127.51428795 157.29559898 C-139.4151909 145.43863303 -149.0408307 133.19431358 -156.3984375 118 C-156.80835938 117.1853125 -157.21828125 116.370625 -157.640625 115.53125 C-167.95394148 92.82596412 -166.9196737 64.620583 -158.52148438 41.59570312 C-154.49913727 31.54410538 -149.0179337 22.54350201 -142.3984375 14 C-141.73585938 13.14148438 -141.07328125 12.28296875 -140.390625 11.3984375 C-124.53840996 -7.5880558 -100.77461554 -19.2795907 -76.53515625 -22.71875 C-48.9931523 -25.18826966 -21.4457077 -17.88306571 0 0 Z M-130.86669922 17.62109375 C-136.16134277 23.8869441 -140.87768069 30.57527476 -144.3984375 38 C-144.90117188 39.04671875 -145.40390625 40.0934375 -145.921875 41.171875 C-151.32209805 53.02602317 -153.63133816 63.83102634 -153.7109375 76.75 C-153.71657715 77.61310791 -153.7222168 78.47621582 -153.72802734 79.36547852 C-153.37578793 110.62224882 -135.80358801 132.93322652 -114.73852539 153.91870117 C-113.5114703 155.14847492 -112.28483917 156.37867183 -111.05859375 157.60925293 C-107.7682499 160.90861047 -104.47173826 164.20173667 -101.1736939 167.49339461 C-97.70925054 170.95273058 -94.24973884 174.41699321 -90.78941345 177.88044739 C-84.99071781 183.68276459 -79.18785528 189.4808893 -73.38256836 195.27661133 C-66.67292823 201.9753241 -59.97058538 208.68127353 -53.27189642 215.39093608 C-47.50378837 221.16811368 -41.73180047 226.94139319 -35.95653719 232.71141797 C-32.5138265 236.15101307 -29.07247601 239.5919398 -25.6346302 243.03639793 C-22.4108623 246.2659354 -19.18225602 249.49055584 -15.94982147 252.71141815 C-14.76451913 253.89407382 -13.58091947 255.07843878 -12.39914513 256.26461983 C-10.78764574 257.8815745 -9.17012853 259.49225827 -7.55091858 261.10148621 C-6.64709977 262.00455096 -5.74328096 262.90761572 -4.81207371 263.83804607 C-1.3597799 266.93035142 1.28433851 268.29276689 5.9140625 268.375 C6.63207031 268.40335938 7.35007812 268.43171875 8.08984375 268.4609375 C14.21207787 267.33741709 18.80876114 263.16834977 23.08357239 258.89894104 C23.8415011 258.14803229 23.8415011 258.14803229 24.6147415 257.38195366 C26.29044709 255.71812514 27.95532808 254.04388799 29.62036133 252.36938477 C30.8262088 251.16760653 32.03269265 249.96646654 33.23976135 248.76591492 C36.50728088 245.51204155 39.76527466 242.24878526 43.02121186 238.98332715 C46.44198715 235.55493084 49.87010592 232.13388985 53.29704285 228.71165466 C59.05638334 222.95776904 64.80937888 217.19759622 70.55883789 211.43383789 C77.18045439 204.79594201 83.81274529 198.16885929 90.45077497 191.54738003 C96.16784226 185.84399103 101.87896169 180.13469561 107.58528346 174.42055553 C110.98508312 171.01610805 114.38680681 167.61364944 117.79392433 164.21652412 C121.00439509 161.01481174 124.20726359 157.80567298 127.40476036 154.59100533 C128.57030224 153.42154344 129.73831702 152.2545393 130.90916443 151.09038925 C150.53422045 131.56713944 165.58780902 109.12922717 165.98168945 80.60009766 C165.96371573 69.0746599 165.44086121 58.92819992 161.6015625 48 C161.04082031 46.39318359 161.04082031 46.39318359 160.46875 44.75390625 C155.9984251 33.134022 149.1434309 23.942028 140.6015625 15 C140.06144531 14.38511719 139.52132813 13.77023437 138.96484375 13.13671875 C131.08778625 4.50568597 119.47227539 -1.96709111 108.6015625 -6 C107.38082031 -6.46535156 106.16007812 -6.93070313 104.90234375 -7.41015625 C87.09277138 -13.56616082 65.24074479 -13.78089168 47.6015625 -7 C46.55484375 -6.62617187 45.508125 -6.25234375 44.4296875 -5.8671875 C33.67038247 -1.7436975 24.8269457 4.54191165 16.109375 11.984375 C9.8566668 17.00991617 9.8566668 17.00991617 5.140625 16.97265625 C1.02104398 15.84045352 -0.89777123 14.32103719 -4.0234375 11.4375 C-13.33551529 3.20956342 -23.66944246 -2.85948793 -35.3984375 -7 C-36.96851563 -7.58974609 -36.96851563 -7.58974609 -38.5703125 -8.19140625 C-70.80056596 -18.65530075 -108.38129047 -7.20483144 -130.86669922 17.62109375 Z " fill="#F9FCFD" transform="translate(993.3984375,751)"/>
<path d="M0 0 C14.52 0 29.04 0 44 0 C44 11.22 44 22.44 44 34 C55.22 34 66.44 34 78 34 C78 48.52 78 63.04 78 78 C66.78 78 55.56 78 44 78 C44 89.22 44 100.44 44 112 C29.48 112 14.96 112 0 112 C0 101.11 0 90.22 0 79 C-11.22 79 -22.44 79 -34 79 C-34 64.15 -34 49.3 -34 34 C-22.78 34 -11.56 34 0 34 C0 22.78 0 11.56 0 0 Z " fill="#FAFCFE" transform="translate(978,811)"/>
<path d="M0 0 C3.47914941 -0.02887814 6.95826831 -0.04675687 10.4375 -0.0625 C11.92733398 -0.07506836 11.92733398 -0.07506836 13.44726562 -0.08789062 C14.39150391 -0.09111328 15.33574219 -0.09433594 16.30859375 -0.09765625 C17.62041626 -0.10551147 17.62041626 -0.10551147 18.95874023 -0.11352539 C21 0 21 0 22 1 C22.32282731 2.61526995 22.58924116 4.24187079 22.83203125 5.87109375 C22.98889404 6.90886963 23.14575684 7.94664551 23.30737305 9.01586914 C23.47406494 10.14500732 23.64075684 11.27414551 23.8125 12.4375 C24.07317261 14.16311157 24.07317261 14.16311157 24.33911133 15.92358398 C25.08604479 20.8690415 25.82329636 25.81593195 26.56152344 30.76269531 C27.10021663 34.36313507 27.64372938 37.96282419 28.1875 41.5625 C28.35419189 42.69163818 28.52088379 43.82077637 28.69262695 44.98413086 C28.84948975 46.02190674 29.00635254 47.05968262 29.16796875 48.12890625 C29.30485107 49.04744385 29.4417334 49.96598145 29.58276367 50.91235352 C29.79529672 52.9802342 29.79529672 52.9802342 31 54 C34.3 36.18 37.6 18.36 41 0 C51.89 0 62.78 0 74 0 C75.18922204 5.3514992 76.36204727 10.68274036 77.4375 16.0546875 C77.69273438 17.32957031 77.94796875 18.60445312 78.2109375 19.91796875 C78.34081055 20.56942871 78.47068359 21.22088867 78.60449219 21.89208984 C78.99791518 23.8645476 79.39338481 25.8365872 79.7890625 27.80859375 C80.53409761 31.53753211 81.27021451 35.26804921 82 39 C82.20882813 40.06250977 82.41765625 41.12501953 82.6328125 42.21972656 C82.81585937 43.18104492 82.99890625 44.14236328 83.1875 45.1328125 C83.42533203 46.37248779 83.42533203 46.37248779 83.66796875 47.63720703 C84.01701731 50.12109815 84.0579319 52.49500221 84 55 C84.66 55 85.32 55 86 55 C86.07347656 53.74896484 86.07347656 53.74896484 86.1484375 52.47265625 C86.22320313 51.34730469 86.29796875 50.22195313 86.375 49.0625 C86.44460938 47.96035156 86.51421875 46.85820313 86.5859375 45.72265625 C86.8947599 42.9461681 87.3105067 40.47136216 87.9453125 37.7734375 C89.19567945 32.41593879 89.84440052 27.01982538 90.5 21.5625 C90.73608813 19.60504403 90.97564576 17.64800325 91.21875 15.69140625 C91.3724707 14.41052124 91.3724707 14.41052124 91.52929688 13.10375977 C92.19576847 8.70912624 93.12828665 4.35856674 94 0 C101.26 0 108.52 0 116 0 C114.49731945 10.66187632 112.97745744 21.31449223 111.27294922 31.94580078 C109.0907687 45.61610585 107.06715374 59.31209012 105 73 C92.46 73 79.92 73 67 73 C66.51789063 70.22851562 66.03578125 67.45703125 65.5390625 64.6015625 C65.06605344 61.88748043 64.59261701 59.17347323 64.11914062 56.45947266 C63.79284827 54.58780556 63.46699325 52.71606217 63.14160156 50.84423828 C62.67110117 48.13813939 62.19897596 45.432328 61.7265625 42.7265625 C61.58376862 41.90322418 61.44097473 41.07988586 61.29385376 40.2315979 C60.28550311 34.46881698 59.17028962 28.73202114 58 23 C56.24540115 28.6436235 55.19434051 34.2569276 54.2734375 40.08984375 C54.12089508 41.03436905 53.96835266 41.97889435 53.81118774 42.95204163 C53.32849329 45.9465729 52.85166031 48.94200293 52.375 51.9375 C52.04726273 53.97727588 51.71914174 56.01699014 51.390625 58.05664062 C50.58858927 63.03695845 49.79449866 68.01845092 49 73 C36.46 73 23.92 73 11 73 C8.49747129 59.77234827 6.29384206 46.56486538 4.43945312 33.23144531 C3.34519539 25.3645605 2.17135702 17.51709748 0.86303711 9.68286133 C0.3223132 6.38265956 0 3.35829365 0 0 Z " fill="#057EC0" transform="translate(997,1347)"/>
<path d="M0 0 C0.92063232 0.00757324 1.84126465 0.01514648 2.78979492 0.02294922 C14.65867924 0.30929899 24.05261146 3.55573189 32.3671875 12.1796875 C40.17705403 21.54375633 41.62993342 32.60633587 40.6875 44.4375 C39.467522 54.33102026 34.3583111 63.20079706 26.6875 69.4375 C16.60765281 76.69498998 3.34818568 77.65874827 -8.63671875 75.96875 C-19.62794963 73.82411958 -27.96427206 68.78670842 -34.3125 59.4375 C-39.85987519 48.39333358 -41.33474389 36.07414629 -37.75 24.125 C-34.21136555 14.83299137 -28.26693974 7.87438456 -19.3125 3.4375 C-12.84852147 0.71414765 -6.98171868 -0.08065431 0 0 Z " fill="#047DBF" transform="translate(874.3125,1345.5625)"/>
<path d="M0 0 C7.693125 -0.0825 15.38625 -0.165 23.3125 -0.25 C25.71829346 -0.28641602 28.12408691 -0.32283203 30.6027832 -0.36035156 C32.54377352 -0.37205142 34.48477378 -0.38224016 36.42578125 -0.390625 C37.89597717 -0.4213208 37.89597717 -0.4213208 39.39587402 -0.45263672 C47.20680334 -0.45651648 55.26970508 0.64961218 61.27510071 6.043396 C66.12174113 11.33334401 67.32692918 15.33298316 67.203125 22.44140625 C66.64188076 29.51092498 63.11380507 33.26246376 58.03515625 37.71484375 C56 39 56 39 52 39 C52 39.66 52 40.32 52 41 C52.886875 41.0825 53.77375 41.165 54.6875 41.25 C58.49179956 42.11135084 60.22253264 43.29968451 63 46 C64.96280482 49.16559235 65.29090424 51.72712719 65.4140625 55.421875 C65.45273438 56.44667969 65.49140625 57.47148438 65.53125 58.52734375 C65.5621875 59.59082031 65.593125 60.65429688 65.625 61.75 C65.66367188 62.82894531 65.70234375 63.90789062 65.7421875 65.01953125 C65.83634248 67.67940932 65.9192555 70.33968106 66 73 C58.74 73 51.48 73 44 73 C42.50489608 68.51468823 42.68010423 63.85767388 42.5703125 59.16015625 C42.52137374 54.91168207 42.52137374 54.91168207 40.58056641 51.29663086 C37.09300073 48.43557721 32.58987704 48.74129139 28.25 48.4375 C26.1875 48.293125 24.125 48.14875 22 48 C22 56.25 22 64.5 22 73 C14.74 73 7.48 73 0 73 C0 48.91 0 24.82 0 0 Z " fill="#037DBF" transform="translate(1210,1347)"/>
<path d="M0 0 C1.52947266 -0.01063477 1.52947266 -0.01063477 3.08984375 -0.02148438 C12.64620254 0.05825418 22.48076104 2.22969787 29.5703125 9.07421875 C34.33640445 14.38138878 35.97358102 18.25094359 35.875 25.4375 C32.27125537 25.58250644 28.66825758 25.67146763 25.0625 25.75 C24.03833984 25.79189453 23.01417969 25.83378906 21.95898438 25.87695312 C19.18046804 25.92250257 16.61255358 25.9206148 13.875 25.4375 C11.87109375 23.03125 11.87109375 23.03125 10.875 20.4375 C5.62578413 17.3929548 0.89506879 16.64509606 -5.125 17.4375 C-10.39822153 19.26284591 -12.92191086 22.04469203 -16.125 26.4375 C-18.5187348 33.6187044 -18.32936034 43.74063527 -15.375 50.75 C-13.73798464 53.75501072 -12.29793791 55.94435275 -9.125 57.4375 C-3.19734547 58.91941363 3.0602002 59.63243049 8.6875 56.9375 C12.75841613 54.19086203 12.75841613 54.19086203 14.875 46.4375 C7.945 46.4375 1.015 46.4375 -6.125 46.4375 C-6.125 42.1475 -6.125 37.8575 -6.125 33.4375 C7.735 33.4375 21.595 33.4375 35.875 33.4375 C35.875 46.9675 35.875 60.4975 35.875 74.4375 C29.935 74.4375 23.995 74.4375 17.875 74.4375 C17.38 69.9825 17.38 69.9825 16.875 65.4375 C16.215 66.345 15.555 67.2525 14.875 68.1875 C10.71438287 73.18733251 5.20712519 75.45395985 -1.125 76.4375 C-12.24210612 77.18632062 -20.64040383 76.06747492 -29.41015625 68.96484375 C-36.17911768 62.93599656 -40.33671771 53.44888116 -41.34716797 44.46142578 C-42.02016233 32.39662989 -40.72570481 21.86937569 -32.80859375 12.21484375 C-23.75783285 2.66009617 -12.87911359 -0.25430097 0 0 Z " fill="#037DBF" transform="translate(707.125,1345.5625)"/>
<path d="M0 0 C11.22 0 22.44 0 34 0 C38.50103696 11.2525924 38.50103696 11.2525924 40.29003906 16.703125 C40.89020844 18.52420776 40.89020844 18.52420776 41.50250244 20.38208008 C41.92370142 21.67133507 42.34473858 22.96064294 42.765625 24.25 C43.20811447 25.59861658 43.65080614 26.94716684 44.09368896 28.2956543 C45.01344972 31.09860202 45.93091575 33.90228697 46.84667969 36.70654297 C48.0215497 40.30365938 49.20205869 43.89889603 50.38422012 47.49362183 C51.29570296 50.26721014 52.20434911 53.04172117 53.11211395 55.81652832 C53.54665547 57.14371714 53.98206066 58.47062349 54.41834259 59.79724121 C55.02428052 61.64122981 55.62601604 63.48659775 56.22753906 65.33203125 C56.57077209 66.38108643 56.91400513 67.4301416 57.26763916 68.51098633 C58 71 58 71 58 73 C50.74 73 43.48 73 36 73 C34.68 69.37 33.36 65.74 32 62 C22.1 62 12.2 62 2 62 C0.68 65.63 -0.64 69.26 -2 73 C-9.26 73 -16.52 73 -24 73 C-21.77280235 64.50493449 -19.15825699 56.196421 -16.3671875 47.87109375 C-15.92524616 46.5464651 -15.48352875 45.22176172 -15.04202271 43.89698792 C-14.12443908 41.14578758 -13.2048687 38.39526278 -12.28369141 35.64526367 C-11.10256627 32.11902237 -9.92548307 28.59144806 -8.74972343 25.06341457 C-7.84160121 22.33931927 -6.93191932 19.61574699 -6.02170181 16.89235115 C-5.58675418 15.59068841 -5.15216877 14.28890458 -4.71795273 12.9869976 C-4.11409761 11.17759447 -3.508031 9.36892982 -2.90185547 7.56030273 C-2.55782684 6.53202866 -2.21379822 5.50375458 -1.85934448 4.44432068 C-1 2 -1 2 0 0 Z " fill="#057EC0" transform="translate(1144,1347)"/>
<path d="M0 0 C36.96 0 73.92 0 112 0 C112 10.89 112 21.78 112 33 C75.04 33 38.08 33 0 33 C0 22.11 0 11.22 0 0 Z " fill="#0480C4" transform="translate(1022,1136)"/>
<path d="M0 0 C36.96 0 73.92 0 112 0 C112 10.89 112 21.78 112 33 C75.04 33 38.08 33 0 33 C0 22.11 0 11.22 0 0 Z " fill="#0580C4" transform="translate(865,1136)"/>
<path d="M0 0 C7.26 0 14.52 0 22 0 C22 9.24 22 18.48 22 28 C30.91 28 39.82 28 49 28 C49 18.76 49 9.52 49 0 C56.26 0 63.52 0 71 0 C71 24.09 71 48.18 71 73 C63.74 73 56.48 73 49 73 C49 63.76 49 54.52 49 45 C40.09 45 31.18 45 22 45 C22 54.24 22 63.48 22 73 C14.74 73 7.48 73 0 73 C0 48.91 0 24.82 0 0 Z " fill="#047DBF" transform="translate(755,1347)"/>
<path d="M0 0 C1.03382813 -0.02449219 2.06765625 -0.04898437 3.1328125 -0.07421875 C13.2557034 -0.11246645 21.20665933 2.51668668 28.62109375 9.51171875 C32.41503004 13.85154515 33.25 17.55428974 33.25 23.375 C26.32 23.375 19.39 23.375 12.25 23.375 C11.59 21.725 10.93 20.075 10.25 18.375 C6.05368021 15.70461468 1.06581763 15.81765402 -3.75 16.375 C-6.82499469 17.34837194 -6.82499469 17.34837194 -8.75 19.375 C-9.5 21.875 -9.5 21.875 -8.75 24.375 C-5.93540618 26.98607704 -3.91503847 27.76129125 -0.1171875 27.96484375 C0.76702881 28.02438232 1.65124512 28.0839209 2.56225586 28.14526367 C3.95456421 28.22804565 3.95456421 28.22804565 5.375 28.3125 C23.23764658 29.73050811 23.23764658 29.73050811 29.75 36.8125 C34.74564247 43.0715753 35.0271747 49.64260362 34.25 57.375 C32.82842868 62.97616123 30.15919867 67.56985737 25.53125 71.08984375 C14.53691435 77.28357051 0.9844682 78.03917714 -11.21484375 75.71484375 C-18.73629341 73.523854 -24.65894089 69.95301175 -29.08984375 63.390625 C-31.57139511 58.83375489 -31.96731678 55.85378254 -32.75 50.375 C-25.82 50.375 -18.89 50.375 -11.75 50.375 C-10.43 52.685 -9.11 54.995 -7.75 57.375 C-3.61074516 60.09508175 1.44790644 59.92207395 6.25 59.375 C9.34355658 58.47319664 9.34355658 58.47319664 11.25 56.375 C11.66746608 53.24864791 11.66746608 53.24864791 11.25 50.375 C6.11570948 47.31926903 1.80470587 46.82944658 -4 46.4375 C-20.84474976 44.95034648 -20.84474976 44.95034648 -26.6875 38.5625 C-31.21288457 31.56872384 -32.94918897 25.6528967 -31.75 17.375 C-29.63082462 10.83319774 -25.85864999 7.16415232 -20.12890625 3.56640625 C-13.40776639 0.20031814 -7.398086 0.00908856 0 0 Z " fill="#047DBF" transform="translate(954.75,1345.625)"/>
<path d="M0 0 C7.26 0 14.52 0 22 0 C22 11.22 22 22.44 22 34 C33.22 34 44.44 34 56 34 C56 41.26 56 48.52 56 56 C44.78 56 33.56 56 22 56 C22 67.22 22 78.44 22 90 C14.74 90 7.48 90 0 90 C0 78.78 0 67.56 0 56 C-11.22 56 -22.44 56 -34 56 C-34 48.74 -34 41.48 -34 34 C-22.78 34 -11.56 34 0 34 C0 22.78 0 11.56 0 0 Z " fill="#0480C4" transform="translate(989,822)"/>
<path d="M0 0 C15.18 0 30.36 0 46 0 C46 5.94 46 11.88 46 18 C42.04 18 38.08 18 34 18 C34 30.54 34 43.08 34 56 C37.96 56 41.92 56 46 56 C46 61.61 46 67.22 46 73 C30.82 73 15.64 73 0 73 C0 67.39 0 61.78 0 56 C3.96 56 7.92 56 12 56 C12 43.46 12 30.92 12 18 C8.04 18 4.08 18 0 18 C0 12.06 0 6.12 0 0 Z " fill="#037DBF" transform="translate(1286,1347)"/>
<path d="M0 0 C5.9480713 5.70574247 8.86959228 11.84539323 9.3359375 20.12109375 C9.36556451 21.5596497 9.37821892 22.9986426 9.375 24.4375 C9.37258301 25.56236816 9.37258301 25.56236816 9.37011719 26.70996094 C9.24190455 32.47450178 8.33699245 36.17989979 5 41 C4.46375 41.886875 3.9275 42.77375 3.375 43.6875 C-2.26221371 49.17636598 -8.23481576 51.32881735 -16.0625 51.625 C-24.33282706 51.29275016 -29.74231889 48.67737552 -35.375 42.6875 C-41.66827174 34.48876543 -41.93594956 26.06145774 -41 16 C-39.41157463 8.87099565 -35.97944954 3.26257789 -30 -1 C-20.70163525 -5.92162973 -8.88977832 -5.65438281 0 0 Z " fill="#FCFDFE" transform="translate(922,1448)"/>
<path d="M0 0 C6.904255 3.9433918 11.78372773 10.50754332 14.24609375 18.02734375 C15.69544358 24.56738514 15.41252386 30.47164288 12.05078125 36.33984375 C8.39326514 41.33809158 3.87441231 44.99871053 -2.28125 46.16015625 C-9.43971916 47.00112254 -15.36992235 46.90957066 -21.234375 42.3828125 C-26.75564006 36.387393 -30.62563295 28.48565378 -30.96875 20.28515625 C-30.49965953 14.25778627 -28.86909314 9.58592153 -24.41015625 5.40625 C-17.22566466 -0.22997686 -9.02830348 -3.32377611 0 0 Z " fill="#FAFCFD" transform="translate(865.28125,521.83984375)"/>
<path d="M0 0 C5.2550778 3.28578363 9.0171731 8.31531081 10.88671875 14.1796875 C12.03326857 23.60539354 10.26498369 31.94784534 4.57421875 39.6171875 C-0.407517 44.36721461 -4.40377863 45.35365371 -11.11328125 45.5546875 C-17.68374821 45.36602241 -21.62784336 44.20271834 -26.80078125 39.9921875 C-31.75740913 33.96385629 -33.82422356 28.88136578 -33.49609375 20.984375 C-32.43898513 13.23943633 -29.04992868 6.32955033 -23.11328125 1.1796875 C-16.04675896 -3.03304694 -7.5548344 -3.21808362 0 0 Z " fill="#FBFDFE" transform="translate(1077.11328125,503.8203125)"/>
<path d="M0 0 C1.6097168 -0.05607422 1.6097168 -0.05607422 3.25195312 -0.11328125 C11.96407145 -0.20931195 16.37490122 2.023356 22.9375 7.4375 C25.3490692 12.16015635 25.20385692 17.1831045 24.4375 22.375 C22.03550311 27.14497117 19.05383721 30.02632344 14.29296875 32.48046875 C10.5489438 33.65335755 7.00022599 33.58934011 3.125 33.5 C-0.6803125 33.438125 -0.6803125 33.438125 -4.5625 33.375 C-4.5625 39.975 -4.5625 46.575 -4.5625 53.375 C-7.2025 53.375 -9.8425 53.375 -12.5625 53.375 C-12.58776692 45.98771898 -12.6053316 38.60044902 -12.61743164 31.21313477 C-12.62247363 28.69783105 -12.62930703 26.18253028 -12.63793945 23.66723633 C-12.65001094 20.06070225 -12.65572949 16.45420677 -12.66015625 12.84765625 C-12.66531754 11.71538101 -12.67047882 10.58310577 -12.67579651 9.41651917 C-12.67587204 8.37551559 -12.67594757 7.33451202 -12.67602539 6.26196289 C-12.678246 5.34040909 -12.68046661 4.41885529 -12.68275452 3.46937561 C-12.37264648 -1.93152507 -4.08335175 0.05262668 0 0 Z " fill="#0B81C1" transform="translate(995.5625,1444.625)"/>
<path d="M0 0 C2.90302381 1.7038197 4.99703763 3.1556657 6.5 6.25 C8.6565836 15.46449357 8.76726699 25.71546603 4.5 34.25 C1.01600852 38.38538932 -3.64433546 38.921819 -8.77734375 39.51171875 C-13.39002866 39.74038176 -17.1115272 39.30199554 -20.9921875 36.67578125 C-25.7597975 32.16754899 -26.68929309 26.68327236 -26.97070312 20.30664062 C-27.06113354 13.76550704 -27.03709379 7.38123702 -22.5 2.25 C-15.94306431 -3.10260056 -7.67889958 -3.5636882 0 0 Z " fill="#FAFCFD" transform="translate(884.5,1364.75)"/>
<path d="M0 0 C2.31 0 4.62 0 7 0 C12.55474643 11.45666451 17.40317675 23.12897968 22 35 C22.30921387 35.79841309 22.61842773 36.59682617 22.93701172 37.41943359 C23.79765968 39.65227744 24.65113807 41.88765167 25.5 44.125 C25.75531494 44.79394287 26.01062988 45.46288574 26.27368164 46.15209961 C28 50.76107251 28 50.76107251 28 53 C25.36 53 22.72 53 20 53 C19.32694982 51.39850114 18.66177773 49.79368971 18 48.1875 C17.62875 47.29417969 17.2575 46.40085937 16.875 45.48046875 C16 43 16 43 16 40 C3.625 40.495 3.625 40.495 -9 41 C-10.32 44.96 -11.64 48.92 -13 53 C-15.64 53 -18.28 53 -21 53 C-20.38466133 48.28028898 -19.05414364 44.08733801 -17.3046875 39.6875 C-17.03415558 38.99672363 -16.76362366 38.30594727 -16.4848938 37.59423828 C-15.9111431 36.13410328 -15.33441312 34.67513587 -14.75488281 33.21728516 C-13.88994079 31.03765047 -13.03807128 28.85324462 -12.1875 26.66796875 C-8.58983129 17.51224834 -4.56133514 8.7185232 0 0 Z " fill="#0C82C1" transform="translate(1109,1445)"/>
<path d="M0 0 C5.9480713 5.70574247 8.86959228 11.84539323 9.3359375 20.12109375 C9.36556451 21.5596497 9.37821892 22.9986426 9.375 24.4375 C9.37258301 25.56236816 9.37258301 25.56236816 9.37011719 26.70996094 C9.24190455 32.47450178 8.33699245 36.17989979 5 41 C4.46375 41.886875 3.9275 42.77375 3.375 43.6875 C-2.26221371 49.17636598 -8.23481576 51.32881735 -16.0625 51.625 C-24.33282706 51.29275016 -29.74231889 48.67737552 -35.375 42.6875 C-41.66827174 34.48876543 -41.93594956 26.06145774 -41 16 C-39.41157463 8.87099565 -35.97944954 3.26257789 -30 -1 C-20.70163525 -5.92162973 -8.88977832 -5.65438281 0 0 Z M-28.69921875 7.2578125 C-34.10782873 14.50177662 -33.85044467 22.1802199 -33 31 C-31.68489108 35.89636598 -29.00842764 40.00766882 -24.90234375 43.08984375 C-19.72315874 45.56777005 -13.98841328 45.66280443 -8.625 43.875 C-3.42414167 40.16010119 -0.65671632 37.21452698 1 31 C1.63627858 23.33986699 2.20288641 15.66664741 -2 9 C-5.44870628 5.03398778 -7.60431156 3.25575593 -12.890625 2.69140625 C-19.41758146 2.44095327 -24.07424472 2.27707124 -28.69921875 7.2578125 Z " fill="#0B81C1" transform="translate(922,1448)"/>
<path d="M0 0 C3.80606267 3.497463 4.80065189 6.77509524 5.17578125 11.78515625 C4.89713474 15.29610232 3.20546078 17.35344707 1 20 C0.34 20.99 -0.32 21.98 -1 23 C-0.15695312 23.81984375 0.68609375 24.6396875 1.5546875 25.484375 C2.66172316 26.57264734 3.76847939 27.66120398 4.875 28.75 C5.43058594 29.28882813 5.98617187 29.82765625 6.55859375 30.3828125 C11.60871292 35.37208686 11.60871292 35.37208686 13 39 C8.88683279 40.57525553 8.88683279 40.57525553 6 40 C3.42594337 37.73290072 1.35505583 35.28762379 -0.7890625 32.61328125 C-3.0326268 29.96143581 -5.10272317 27.91791565 -8 26 C-10.22338833 25.72654433 -10.22338833 25.72654433 -12.3125 26.25 C-13.529375 26.4975 -14.74625 26.745 -16 27 C-16.12462322 32.73266804 -15.6416966 38.30494264 -15 44 C-17.97 44.495 -17.97 44.495 -21 45 C-22.46205889 38.01595725 -23.91778949 31.03062683 -25.3671875 24.04394531 C-25.90798452 21.44261151 -26.45332918 18.8422906 -27 16.2421875 C-27.27119636 14.93236678 -27.54206288 13.62247769 -27.8125 12.3125 C-28.04582031 11.19488281 -28.27914062 10.07726562 -28.51953125 8.92578125 C-28.9642886 6.21746209 -29.09649408 3.73738476 -29 1 C-8.86122692 -5.9761763 -8.86122692 -5.9761763 0 0 Z " fill="#0C82C1" transform="translate(928,508)"/>
<path d="M0 0 C8.6598643 2.51811657 17.24957027 5.72368336 22.96484375 13.046875 C24.89199468 16.68300882 24.82527414 20.03448783 24 24 C22.71791936 27.41240656 21.09155498 30.13428398 18.1875 32.4375 C15.11872999 33.22661229 12.15554425 33.03298478 9 33 C9.2165625 33.99 9.433125 34.98 9.65625 36 C11.0844606 42.7065647 12.42219171 49.10420204 12 56 C9.69 55.01 7.38 54.02 5 53 C4.86722656 51.73542969 4.73445313 50.47085938 4.59765625 49.16796875 C4.41944537 47.50779375 4.24105037 45.84763852 4.0625 44.1875 C3.97548828 43.35412109 3.88847656 42.52074219 3.79882812 41.66210938 C3.71181641 40.85966797 3.62480469 40.05722656 3.53515625 39.23046875 C3.456604 38.49207764 3.37805176 37.75368652 3.29711914 36.99291992 C3.02848004 34.79730622 3.02848004 34.79730622 2 32 C-1.76865248 29.72638745 -1.76865248 29.72638745 -6 29 C-8.31 33.62 -10.62 38.24 -13 43 C-14.65 42.67 -16.3 42.34 -18 42 C-19.21701557 38.34895328 -18.37145176 37.12640845 -16.75079346 33.78263855 C-16.40506287 33.09511002 -16.05933228 32.40758148 -15.703125 31.69921875 C-15.35368835 30.98522415 -15.00425171 30.27122955 -14.64422607 29.53559875 C-13.52204732 27.24822096 -12.38624389 24.96791841 -11.25 22.6875 C-10.49909769 21.16255335 -9.74908702 19.6371673 -9 18.11132812 C-6.02516386 12.06162915 -3.01748026 6.02853288 0 0 Z " fill="#0A80C1" transform="translate(1180,536)"/>
<path d="M0 0 C4.95796054 2.38716618 7.02443583 4.90512399 9 10 C9.495 12.475 9.495 12.475 10 15 C16.93 15 23.86 15 31 15 C28 21 28 21 25.81103516 21.73779297 C24.56265869 21.73996826 24.56265869 21.73996826 23.2890625 21.7421875 C21.91621094 21.79439453 21.91621094 21.79439453 20.515625 21.84765625 C18.59641176 21.86581097 16.67710982 21.8762914 14.7578125 21.87890625 C9.4347422 21.97122326 9.4347422 21.97122326 5.22167969 24.85253906 C3.96748777 26.85977645 2.91770952 28.82051767 2 31 C2.71542969 31.26554688 3.43085937 31.53109375 4.16796875 31.8046875 C7.06904319 33.02914099 9.63015864 34.47983063 12.3125 36.125 C13.19550781 36.66382813 14.07851563 37.20265625 14.98828125 37.7578125 C15.65214844 38.16773438 16.31601562 38.57765625 17 39 C16.34 40.65 15.68 42.3 15 44 C10.9282692 43.40207292 7.96414321 42.07541349 4.39453125 40.05078125 C3.32783203 39.44943359 2.26113281 38.84808594 1.16210938 38.22851562 C0.05673828 37.59623047 -1.04863281 36.96394531 -2.1875 36.3125 C-3.27353516 35.69955078 -4.35957031 35.08660156 -5.47851562 34.45507812 C-12.04617939 30.73537426 -18.54952392 26.91924218 -25 23 C-22.51579019 14.86875715 -18.48080041 5.26348025 -10.88671875 0.70703125 C-7.20859715 -0.67131246 -3.83388057 -0.74722263 0 0 Z " fill="#0B81C1" transform="translate(628,715)"/>
<path d="M0 0 C2.64 0 5.28 0 8 0 C8 7.26 8 14.52 8 22 C16.25 22 24.5 22 33 22 C33 14.74 33 7.48 33 0 C35.64 0 38.28 0 41 0 C41 17.49 41 34.98 41 53 C38.36 53 35.72 53 33 53 C33 45.08 33 37.16 33 29 C24.75 29 16.5 29 8 29 C8 36.92 8 44.84 8 53 C5.36 53 2.72 53 0 53 C0 35.51 0 18.02 0 0 Z " fill="#1184C3" transform="translate(829,1445)"/>
<path d="M0 0 C16.17 0 32.34 0 49 0 C48.34 2.31 47.68 4.62 47 7 C40.565 7.495 40.565 7.495 34 8 C32.93926635 10.57692357 31.90137038 13.15942324 30.875 15.75 C30.57207031 16.47960937 30.26914062 17.20921875 29.95703125 17.9609375 C28.24926841 22.06379748 28.24926841 22.06379748 28.625 26.34375 C30.02544144 28.03064537 31.39863305 29.39893021 33.125 30.75 C34.07375 31.4925 35.0225 32.235 36 33 C35.34 34.98 34.68 36.96 34 39 C31.20000194 37.71579891 29.08475082 36.35456081 26.85546875 34.234375 C26.26773682 33.68040039 25.68000488 33.12642578 25.07446289 32.55566406 C24.45176514 31.95979492 23.82906738 31.36392578 23.1875 30.75 C21.8570903 29.48924613 20.52635082 28.22884018 19.1953125 26.96875 C18.50985352 26.31777344 17.82439453 25.66679688 17.11816406 24.99609375 C14.9884994 22.98916218 12.83831042 21.00697192 10.6796875 19.03125 C9.64485229 18.08040527 9.64485229 18.08040527 8.58911133 17.11035156 C7.25382622 15.88461099 5.91519277 14.66250653 4.57299805 13.44433594 C3.01089054 12.00277759 1.49984742 10.50622975 0 9 C0 8.34 0 7.68 0 7 C-0.66 7 -1.32 7 -2 7 C-1.34 4.69 -0.68 2.38 0 0 Z " fill="#0C82C1" transform="translate(584,777)"/>
<path d="M0 0 C1 1.75 1 1.75 0.7734375 3.47265625 C-2.75545142 13.86327362 -10.40115015 23.62126884 -16.38671875 32.7421875 C-18.98680925 36.70637212 -21.50379025 40.71978033 -24 44.75 C-26.475 42.275 -26.475 42.275 -29 39.75 C-28.6390625 39.14671875 -28.278125 38.5434375 -27.90625 37.921875 C-27.4421875 37.12265625 -26.978125 36.3234375 -26.5 35.5 C-26.0359375 34.71109375 -25.571875 33.9221875 -25.09375 33.109375 C-23.71961224 30.57859107 -23.71961224 30.57859107 -24 26.75 C-25.43988304 24.59588926 -26.8765998 22.6286561 -28.5 20.625 C-33 14.98986486 -33 14.98986486 -33 12.75 C-34.35544922 13.12705078 -34.35544922 13.12705078 -35.73828125 13.51171875 C-36.91777344 13.81722656 -38.09726563 14.12273438 -39.3125 14.4375 C-40.48425781 14.75074219 -41.65601563 15.06398438 -42.86328125 15.38671875 C-46 15.75 -46 15.75 -47.91796875 14.51953125 C-49 12.75 -49 12.75 -49 9.75 C-45.23286882 8.66291137 -41.46492955 7.57867115 -37.69628906 6.49682617 C-35.79971864 5.95178818 -33.90375694 5.4046334 -32.0078125 4.85742188 C-4.74179293 -2.96362058 -4.74179293 -2.96362058 0 0 Z " fill="#0B81C1" transform="translate(1360,679.25)"/>
<path d="M0 0 C2.92643237 1.32856194 5.0700763 2.79564177 7.390625 5.01171875 C8.01388672 5.60146484 8.63714844 6.19121094 9.27929688 6.79882812 C9.92962891 7.42208984 10.57996094 8.04535156 11.25 8.6875 C12.59813372 9.96311164 13.94708361 11.23786131 15.296875 12.51171875 C15.93947266 13.11935059 16.58207031 13.72698242 17.24414062 14.35302734 C20.41649346 17.32865196 23.69027496 20.17921161 27 23 C27.6703125 23.57621094 28.340625 24.15242187 29.03125 24.74609375 C30.68505062 26.16691849 32.34214134 27.5839124 34 29 C33.25 30.9375 33.25 30.9375 32 33 C28.67896541 34.29272983 26.04840686 33.85459171 22.59765625 33.22265625 C21.54763428 33.03864258 20.4976123 32.85462891 19.41577148 32.66503906 C18.30919189 32.46620117 17.2026123 32.26736328 16.0625 32.0625 C7.22175068 30.54748677 -1.0264031 29.50601372 -10 30 C-7.31501609 32.54433543 -4.62655405 35.08496714 -1.9375 37.625 C-1.18533203 38.33785156 -0.43316406 39.05070313 0.34179688 39.78515625 C4.79440371 43.98718348 9.31652028 48.05667179 14 52 C12.35 53.65 10.7 55.3 9 57 C8.52691406 56.55197021 8.05382812 56.10394043 7.56640625 55.64233398 C5.37906087 53.57251045 3.18954382 51.5049977 1 49.4375 C0.25621094 48.73302734 -0.48757813 48.02855469 -1.25390625 47.30273438 C-6.07512566 42.75401867 -10.98392194 38.3323855 -16 34 C-18.66666667 31.66666667 -21.33333333 29.33333333 -24 27 C-22.89453125 25.01953125 -22.89453125 25.01953125 -21 23 C-18.13671875 22.57421875 -18.13671875 22.57421875 -14.6875 22.6875 C-13.44484375 22.72359375 -12.2021875 22.7596875 -10.921875 22.796875 C5.33719065 23.638978 5.33719065 23.638978 9.46484375 24.53515625 C12.6685324 25.12258144 15.75064223 25.0637129 19 25 C16.64813672 22.78920316 14.29308293 20.58183264 11.9375 18.375 C11.28072266 17.75753906 10.62394531 17.14007812 9.94726562 16.50390625 C5.7240842 12.55117487 1.41779955 8.73416087 -3 5 C-1.125 1.125 -1.125 1.125 0 0 Z " fill="#0A80C1" transform="translate(680,631)"/>
<path d="M0 0 C-0.66 1.98 -1.32 3.96 -2 6 C-3.175625 5.67 -4.35125 5.34 -5.5625 5 C-11.42594246 3.54967854 -16.4791135 3.23955675 -22 6 C-23.41192175 7.21379139 -23.41192175 7.21379139 -23.5625 10.75 C-23.51981705 13.40582787 -23.4222149 14.55822746 -21.56640625 16.5 C-17.85690343 18.88841228 -13.92669564 20.44561124 -9.8125 22 C-4.26269175 24.10568762 -1.28176913 27.0773463 2 32 C2.59588888 36.56590177 2.57476623 40.71361844 0.6875 44.9375 C0.130625 45.618125 -0.42625 46.29875 -1 47 C-1.433125 47.556875 -1.86625 48.11375 -2.3125 48.6875 C-8.35479169 53.3870602 -16.80525055 52.55344227 -24 52 C-27.2091794 51.25478116 -29.94360721 50.26471426 -33 49 C-32.505 46.03 -32.505 46.03 -32 43 C-28.87709365 43.48578543 -26.00419641 43.9986012 -23 45 C-21.1903182 45.11880354 -19.37603553 45.1751965 -17.5625 45.1875 C-16.14130859 45.20876953 -16.14130859 45.20876953 -14.69140625 45.23046875 C-11.92156542 44.99328354 -10.31815768 44.5049543 -8 43 C-6.41060653 39.82121306 -6.58423289 37.5043228 -7 34 C-11.09332041 29.22445952 -16.28623183 27.47011455 -22.09765625 25.30859375 C-25.94550896 23.57369381 -28.93858456 21.61477532 -31.28125 18.05078125 C-32.68839736 14.03582275 -32.73042906 10.17113438 -32 6 C-29.85289729 1.95012006 -27.42548744 -0.40720342 -23.19140625 -2.16796875 C-15.28575176 -4.22905126 -7.17443439 -4.00433547 0 0 Z " fill="#0980C1" transform="translate(972,1447)"/>
<path d="M0 0 C5.2550778 3.28578363 9.0171731 8.31531081 10.88671875 14.1796875 C12.03326857 23.60539354 10.26498369 31.94784534 4.57421875 39.6171875 C-0.407517 44.36721461 -4.40377863 45.35365371 -11.11328125 45.5546875 C-17.68374821 45.36602241 -21.62784336 44.20271834 -26.80078125 39.9921875 C-31.75740913 33.96385629 -33.82422356 28.88136578 -33.49609375 20.984375 C-32.43898513 13.23943633 -29.04992868 6.32955033 -23.11328125 1.1796875 C-16.04675896 -3.03304694 -7.5548344 -3.21808362 0 0 Z M-23.11328125 10.1796875 C-26.85469748 16.33492066 -27.26167157 23.34576544 -25.609375 30.30078125 C-24.034267 34.48606823 -21.99603602 37.03178061 -18.11328125 39.1796875 C-13.28894971 40.44105772 -8.80347934 40.96228655 -4.23828125 38.6796875 C0.43569833 35.50490892 2.80416714 30.65314939 3.88671875 25.1796875 C4.55193407 18.05861204 4.40607666 12.88835012 -0.11328125 7.1796875 C-4.33577309 4.06308638 -8.51132807 3.53304899 -13.64453125 3.703125 C-17.94599916 4.53347165 -20.42906622 6.82441871 -23.11328125 10.1796875 Z " fill="#0B81C1" transform="translate(1077.11328125,503.8203125)"/>
<path d="M0 0 C6.904255 3.9433918 11.78372773 10.50754332 14.24609375 18.02734375 C15.69544358 24.56738514 15.41252386 30.47164288 12.05078125 36.33984375 C8.39326514 41.33809158 3.87441231 44.99871053 -2.28125 46.16015625 C-9.43971916 47.00112254 -15.36992235 46.90957066 -21.234375 42.3828125 C-26.75564006 36.387393 -30.62563295 28.48565378 -30.96875 20.28515625 C-30.49965953 14.25778627 -28.86909314 9.58592153 -24.41015625 5.40625 C-17.22566466 -0.22997686 -9.02830348 -3.32377611 0 0 Z M-21.28125 10.16015625 C-24.46825816 15.31498153 -24.0114583 21.04983862 -22.6640625 26.7890625 C-20.48247027 33.11181874 -17.17366265 37.81755125 -11.28125 41.16015625 C-7.21437044 42.19591584 -3.95493084 41.40630886 -0.03125 39.97265625 C3.95436154 37.34577592 6.20855531 34.69074033 7.71875 30.16015625 C8.71101924 22.43463142 7.05366513 16.60363065 2.71875 10.16015625 C-2.00393641 5.65712968 -5.28722504 4.75318932 -11.66796875 4.80859375 C-15.72398772 5.35424653 -18.5226235 7.18209356 -21.28125 10.16015625 Z " fill="#0B81C1" transform="translate(865.28125,521.83984375)"/>
<path d="M0 0 C1.65 0.66 3.3 1.32 5 2 C3.52869627 6.3573226 1.16919385 9.71934134 -1.625 13.3125 C-2.04523438 13.86228516 -2.46546875 14.41207031 -2.8984375 14.97851562 C-3.92720039 16.32292168 -4.9629009 17.66201413 -6 19 C-5.46890625 19.23460937 -4.9378125 19.46921875 -4.390625 19.7109375 C-1.2822369 21.38702912 1.45399703 23.48451926 4.25 25.625 C5.08144531 26.25535156 5.08144531 26.25535156 5.9296875 26.8984375 C7.28866663 27.92938719 8.64463835 28.96429911 10 30 C14.08596252 28.47236536 15.79826179 25.88915809 18.25 22.375 C19.30960938 20.87066406 19.30960938 20.87066406 20.390625 19.3359375 C20.92171875 18.56507813 21.4528125 17.79421875 22 17 C24.475 17.99 24.475 17.99 27 19 C27 23.16989739 26.98469566 23.51568432 24.5078125 26.43359375 C23.9720459 27.07651367 23.4362793 27.71943359 22.88427734 28.38183594 C22.30371582 29.06020508 21.7231543 29.73857422 21.125 30.4375 C19.93087285 31.86730583 18.73818285 33.29831304 17.546875 34.73046875 C16.94939453 35.44509277 16.35191406 36.1597168 15.73632812 36.89599609 C13.20901868 39.95847539 10.78256106 43.0930018 8.375 46.25 C7.59898438 47.26578125 6.82296875 48.2815625 6.0234375 49.328125 C4.34269339 51.54748595 2.66697597 53.77028692 1 56 C-0.65 55.34 -2.3 54.68 -4 54 C-4 50.62270847 -3.62588793 50.16161118 -1.59375 47.64453125 C-1.09746094 47.02255859 -0.60117188 46.40058594 -0.08984375 45.75976562 C0.43480469 45.11716797 0.95945312 44.47457031 1.5 43.8125 C2.28697266 42.83120117 2.28697266 42.83120117 3.08984375 41.83007812 C4.38675581 40.2148331 5.69254664 38.60672434 7 37 C3.72886194 33.63455886 0.37541012 30.58865596 -3.3125 27.6875 C-4.19550781 26.99011719 -5.07851562 26.29273438 -5.98828125 25.57421875 C-6.65214844 25.05472656 -7.31601563 24.53523437 -8 24 C-12.40064304 25.54228144 -14.59595898 29.01426977 -17.25 32.625 C-17.70890625 33.23601563 -18.1678125 33.84703125 -18.640625 34.4765625 C-19.76751252 35.9790792 -20.88472437 37.48884409 -22 39 C-23.65 38.01 -25.3 37.02 -27 36 C-25.44226844 30.93737242 -22.34848651 27.47875044 -19 23.5 C-17.82537604 22.08192641 -16.65221842 20.66263704 -15.48046875 19.2421875 C-14.89571777 18.53416992 -14.3109668 17.82615234 -13.70849609 17.09667969 C-10.34491696 12.96886922 -7.14209043 8.71935334 -3.92578125 4.4765625 C-2 2 -2 2 0 0 Z " fill="#0B81C1" transform="translate(1261,583)"/>
<path d="M0 0 C0.495 2.97 0.495 2.97 1 6 C-1.24805002 6.67321284 -3.49852224 7.33834123 -5.75 8 C-7.00296875 8.37125 -8.2559375 8.7425 -9.546875 9.125 C-13 10 -13 10 -17 10 C-16.6390625 11.25296875 -16.278125 12.5059375 -15.90625 13.796875 C-15.43722617 15.4478389 -14.96849125 17.09888489 -14.5 18.75 C-14.26152344 19.575 -14.02304688 20.4 -13.77734375 21.25 C-13.55175781 22.04921875 -13.32617188 22.8484375 -13.09375 23.671875 C-12.88427734 24.4050293 -12.67480469 25.13818359 -12.45898438 25.89355469 C-12 28 -12 28 -12 32 C-10.96359375 31.71125 -9.9271875 31.4225 -8.859375 31.125 C-7.48965604 30.74973453 -6.1198603 30.37474921 -4.75 30 C-4.06808594 29.80921875 -3.38617187 29.6184375 -2.68359375 29.421875 C0.70600912 28.50042956 3.45778976 28 7 28 C7.495 30.97 7.495 30.97 8 34 C7.21882813 34.20753906 6.43765625 34.41507813 5.6328125 34.62890625 C4.47523437 34.93699219 3.31765625 35.24507812 2.125 35.5625 C1.48530273 35.73233398 0.84560547 35.90216797 0.18652344 36.07714844 C-4.44042836 37.30860011 -9.06122958 38.56126766 -13.6796875 39.82421875 C-14.84387207 40.14124756 -16.00805664 40.45827637 -17.20751953 40.78491211 C-19.55567669 41.42462715 -21.90302094 42.06733414 -24.24951172 42.71313477 C-25.88170654 43.15677368 -25.88170654 43.15677368 -27.546875 43.609375 C-28.52495117 43.87717773 -29.50302734 44.14498047 -30.51074219 44.42089844 C-33 45 -33 45 -36 45 C-36.33 42.69 -36.66 40.38 -37 38 C-34.41806023 37.32749476 -31.83467929 36.66182099 -29.25 36 C-28.52039062 35.80921875 -27.79078125 35.6184375 -27.0390625 35.421875 C-23.55428354 34.53484036 -20.61876278 34 -17 34 C-17.15146484 33.44014404 -17.30292969 32.88028809 -17.45898438 32.3034668 C-18.14319451 29.76583668 -18.8216566 27.22670436 -19.5 24.6875 C-19.85771484 23.36588867 -19.85771484 23.36588867 -20.22265625 22.01757812 C-20.44824219 21.17001953 -20.67382812 20.32246094 -20.90625 19.44921875 C-21.22045898 18.27879028 -21.22045898 18.27879028 -21.54101562 17.0847168 C-22 15 -22 15 -22 12 C-23.18078125 12.3609375 -24.3615625 12.721875 -25.578125 13.09375 C-27.13533005 13.56278767 -28.69262654 14.03152181 -30.25 14.5 C-31.02730469 14.73847656 -31.80460937 14.97695313 -32.60546875 15.22265625 C-33.73662109 15.56103516 -33.73662109 15.56103516 -34.890625 15.90625 C-35.92751465 16.22045898 -35.92751465 16.22045898 -36.98535156 16.54101562 C-39 17 -39 17 -43 17 C-43.33 15.02 -43.66 13.04 -44 11 C-40.50263862 9.51565707 -37.09395261 8.45457733 -33.39453125 7.59765625 C-32.32783203 7.34693359 -31.26113281 7.09621094 -30.16210938 6.83789062 C-29.05673828 6.58201172 -27.95136719 6.32613281 -26.8125 6.0625 C-19.83424061 4.44321251 -12.93948681 2.77859107 -6.12768555 0.54858398 C-4 0 -4 0 0 0 Z " fill="#0C81C1" transform="translate(1429,819)"/>
<path d="M0 0 C1.98 0.66 3.96 1.32 6 2 C4.64404304 7.10413067 3.26368134 12.19331226 1.6875 17.234375 C1.4608667 17.96986572 1.2342334 18.70535645 1.00073242 19.46313477 C0.55170214 20.91439938 0.09391922 22.36299316 -0.3737793 23.80834961 C-1.87797514 28.70893102 -2.36620762 32.8676275 -2 38 C-0.29388912 41.20653576 -0.29388912 41.20653576 3 43 C6.45805844 43.68155595 9.58759491 43.94326645 13 43 C16.45633146 39.35069038 17.92739525 35.94825409 19.359375 31.16796875 C19.55347961 30.53135818 19.74758423 29.89474762 19.9475708 29.23884583 C20.55903563 27.22476434 21.15471291 25.20641496 21.75 23.1875 C22.16432618 21.81283764 22.57968086 20.43848482 22.99609375 19.06445312 C24.00931102 15.71313146 25.00843479 12.35780037 26 9 C28.31 9.33 30.62 9.66 33 10 C24.25153085 43.57136128 24.25153085 43.57136128 16 49 C11.20365505 51.39817248 5.10453796 50.34403641 0.1875 48.8125 C-4.04476879 46.40591579 -6.94495994 43.9091201 -9.3125 39.625 C-10.84638939 33.76833142 -9.86080403 28.68077708 -8.06640625 23.0078125 C-7.86901352 22.3764035 -7.67162079 21.74499451 -7.46824646 21.0944519 C-7.05338838 19.7737373 -6.63381907 18.45449398 -6.2097168 17.13671875 C-5.55848098 15.11250783 -4.92163511 13.08419179 -4.28710938 11.0546875 C-1.16640785 1.16640785 -1.16640785 1.16640785 0 0 Z " fill="#0C82C1" transform="translate(1119,514)"/>
<path d="M0 0 C0.33 1.65 0.66 3.3 1 5 C-0.01320313 5.45439453 -0.01320313 5.45439453 -1.046875 5.91796875 C-8.181576 9.11002325 -8.181576 9.11002325 -13 15 C-14.65789975 20.21202234 -14.28419723 24.2036927 -12.0625 29.1875 C-8.97220614 34.76044567 -4.64405944 38.17797028 1 41 C7.11289569 41.87327081 10.31883786 39.94215367 15.1796875 36.60546875 C17.26735135 35.0351454 17.26735135 35.0351454 18 32 C16.11152552 29.17648977 16.11152552 29.17648977 13.5625 26.3125 C12.71816406 25.31863281 11.87382813 24.32476563 11.00390625 23.30078125 C10.34261719 22.54152344 9.68132813 21.78226563 9 21 C9.66 19.68 10.32 18.36 11 17 C15 17 15 17 17.83203125 19.66796875 C18.8378598 20.83058431 19.83096786 22.00430066 20.8125 23.1875 C21.32748047 23.76564453 21.84246094 24.34378906 22.37304688 24.93945312 C24.5326684 27.49804087 25.97823962 29.22578843 26.07421875 32.640625 C22.93846979 39.52786999 16.16482812 44.78154479 9.1875 47.41015625 C3.28502137 49.00171745 -1.64834822 48.38695356 -6.984375 45.3828125 C-14.23081588 40.41141701 -18.86373454 34.58511683 -21 26 C-22.02791139 19.54343157 -20.83448525 14.31446201 -17 9 C-12.33239322 4.11117963 -7.06494238 -0.60556649 0 0 Z " fill="#0980C1" transform="translate(731,590)"/>
<path d="M0 0 C7.15801225 5.82628904 13.52591766 12.4382985 20 19 C19.01 20.32 18.02 21.64 17 23 C13.66134002 21.55424099 11.51928597 19.73285462 9 17.125 C8.34 16.44695313 7.68 15.76890625 7 15.0703125 C6.34 14.38710938 5.68 13.70390625 5 13 C3.66897947 11.66435787 2.33631284 10.33034716 1 9 C0.51789063 9.5053125 0.03578125 10.010625 -0.4609375 10.53125 C-1.09257813 11.1809375 -1.72421875 11.830625 -2.375 12.5 C-3.00148438 13.1496875 -3.62796875 13.799375 -4.2734375 14.46875 C-6 16 -6 16 -8 16 C-5.87753203 19.86715038 -3.47253855 22.74405677 -0.3125 25.8125 C0.89986328 26.99779297 0.89986328 26.99779297 2.13671875 28.20703125 C2.75160156 28.79871094 3.36648438 29.39039063 4 30 C3.34 31.32 2.68 32.64 2 34 C-2.68445462 32.07298571 -5.43805671 28.48172866 -8.78125 24.80078125 C-10.78862708 22.78319709 -10.78862708 22.78319709 -13.046875 23.0078125 C-15.41699037 24.21183111 -16.92520563 25.63242903 -18.75 27.5625 C-19.36359375 28.20316406 -19.9771875 28.84382812 -20.609375 29.50390625 C-21.06828125 29.99761719 -21.5271875 30.49132812 -22 31 C-20.70396588 33.82868857 -19.30810402 35.9701021 -17.1796875 38.234375 C-16.64472656 38.80800781 -16.10976562 39.38164063 -15.55859375 39.97265625 C-15.00300781 40.55917969 -14.44742187 41.14570312 -13.875 41.75 C-13.31167969 42.35199219 -12.74835938 42.95398438 -12.16796875 43.57421875 C-10.78275854 45.05334151 -9.3919271 46.52719641 -8 48 C-8.33 48.99 -8.66 49.98 -9 51 C-11.0625 51.6875 -11.0625 51.6875 -13 52 C-13.70125 51.2265625 -14.4025 50.453125 -15.125 49.65625 C-20.61264956 43.62458712 -26.15673225 37.69258176 -32 32 C-27.75195272 26.9284851 -23.31855745 22.16011735 -18.625 17.5 C-17.9659668 16.84290039 -17.30693359 16.18580078 -16.62792969 15.50878906 C-12.71023699 11.62588594 -8.74608921 7.84131798 -4.515625 4.296875 C-2.92682445 2.93738587 -1.46039136 1.49558151 0 0 Z " fill="#0980C1" transform="translate(1311,625)"/>
<path d="M0 0 C2.64 0 5.28 0 8 0 C8 15.18 8 30.36 8 46 C15.92 46 23.84 46 32 46 C32 48.31 32 50.62 32 53 C21.44 53 10.88 53 0 53 C0 35.51 0 18.02 0 0 Z " fill="#1184C3" transform="translate(1144,1445)"/>
<path d="M0 0 C13.53 0 27.06 0 41 0 C41 2.31 41 4.62 41 7 C35.39 7 29.78 7 24 7 C24 22.18 24 37.36 24 53 C21.69 53 19.38 53 17 53 C17 37.49 17 21.98 17 6 C11.39 6 5.78 6 0 6 C0 4.02 0 2.04 0 0 Z " fill="#057EC0" transform="translate(1045,1445)"/>
<path d="M0 0 C1.65 0.33 3.3 0.66 5 1 C4.49739772 3.61353187 3.79325729 5.35559746 2.4375 7.6875 C0.60162355 11.91799791 0.3451139 15.44938119 1 20 C2.36997157 22.87146994 2.36997157 22.87146994 4 25 C4 25.66 4 26.32 4 27 C4.721875 27.28875 5.44375 27.5775 6.1875 27.875 C7.90844467 28.56337787 9.61819251 29.28185387 11.3046875 30.05078125 C17.15149993 32.10987606 23.68871711 31.68932998 29.5625 29.9375 C33.80374521 26.56625381 34.73953983 23.04282483 35.3984375 17.875 C35.65659301 14.91667736 35.85876197 11.96599855 36 9 C37.98 9 39.96 9 42 9 C42.50019757 17.70714297 41.80607889 25.86612687 36.25 32.9375 C31.26087182 38.08443516 26.67271356 39.18025431 19.6875 39.5 C11.71659321 39.3073774 6.25473746 36.617941 0.125 31.6875 C-3.90616933 26.58925644 -6.69976175 21.8113109 -6.328125 15.08203125 C-5.45797569 9.5607267 -3.82686298 4.19132612 0 0 Z " fill="#0D82C2" transform="translate(570,822)"/>
<path d="M0 0 C0.99 0.99 1.98 1.98 3 3 C1.94138551 6.32287327 0.86893424 7.07902495 -2.1875 8.921875 C-3.45229401 9.54368796 -4.72343257 10.1527305 -6 10.75 C-6.96292969 11.22373047 -6.96292969 11.22373047 -7.9453125 11.70703125 C-12.69007035 14 -12.69007035 14 -15 14 C-13.02 17.63 -11.04 21.26 -9 25 C-4.52328567 24.10465713 -1.67678319 22.99789901 2.3125 20.9375 C3.38113281 20.38964844 4.44976563 19.84179688 5.55078125 19.27734375 C6.76314453 18.64505859 6.76314453 18.64505859 8 18 C10 21 10 21 10 24 C7.71070947 25.17154293 5.41881638 26.33738074 3.125 27.5 C2.47402344 27.83386719 1.82304688 28.16773438 1.15234375 28.51171875 C-3.7734375 31 -3.7734375 31 -6 31 C-5.72736328 31.49927002 -5.45472656 31.99854004 -5.17382812 32.51293945 C-3.94273151 34.77600018 -2.72128787 37.04413199 -1.5 39.3125 C-1.07074219 40.09818359 -0.64148438 40.88386719 -0.19921875 41.69335938 C0.40986328 42.8293457 0.40986328 42.8293457 1.03125 43.98828125 C1.40830078 44.68477783 1.78535156 45.38127441 2.17382812 46.09887695 C3 48 3 48 3 51 C1.02 51.66 -0.96 52.32 -3 53 C-5.85346587 47.48507008 -8.70165416 41.96746023 -11.54492188 36.44726562 C-12.5135158 34.56858344 -13.48356408 32.69065035 -14.45507812 30.81347656 C-15.84885863 28.11978241 -17.23743759 25.42346381 -18.625 22.7265625 C-19.28121338 21.46243027 -19.28121338 21.46243027 -19.95068359 20.17276001 C-20.35109863 19.39210175 -20.75151367 18.61144348 -21.1640625 17.80712891 C-21.51936035 17.11873932 -21.8746582 16.43034973 -22.24072266 15.72109985 C-23 14 -23 14 -23 12 C-15.41 8.04 -7.82 4.08 0 0 Z " fill="#0C81C1" transform="translate(805,541)"/>
<path d="M0 0 C3.24455193 1.53897405 3.89459316 4.45013002 5.07910156 7.63891602 C5.33979431 8.30338242 5.60048706 8.96784882 5.86907959 9.65245056 C6.69861193 11.77667282 7.50616451 13.90850644 8.31347656 16.04125977 C8.87194536 17.48256872 9.43182438 18.92333212 9.99316406 20.36352539 C11.36638054 23.89581366 12.71994345 27.43508059 14.06347656 30.97875977 C10.31347656 33.97875977 10.31347656 33.97875977 8.06347656 33.97875977 C7.39042639 32.37726091 6.7252543 30.77244947 6.06347656 29.16625977 C5.69222656 28.27293945 5.32097656 27.37961914 4.93847656 26.45922852 C4.06347656 23.97875977 4.06347656 23.97875977 4.06347656 20.97875977 C-8.14652344 25.92875977 -20.35652344 30.87875977 -32.93652344 35.97875977 C-35.93652344 31.97875977 -35.93652344 31.97875977 -35.93652344 28.97875977 C-24.38652344 24.35875977 -12.83652344 19.73875977 -0.93652344 14.97875977 C-1.66719713 10.59471758 -2.34857991 7.89568713 -3.93652344 3.97875977 C-3.93652344 2.98875977 -3.93652344 1.99875977 -3.93652344 0.97875977 C-1.93652344 -0.02124023 -1.93652344 -0.02124023 0 0 Z " fill="#0D82C2" transform="translate(1406.9365234375,762.021240234375)"/>
<path d="M0 0 C2.31 0 4.62 0 7 0 C7.26216309 0.49927002 7.52432617 0.99854004 7.79443359 1.51293945 C8.98625759 3.78035694 10.18060044 6.04643825 11.375 8.3125 C11.7875 9.09818359 12.2 9.88386719 12.625 10.69335938 C13.02460937 11.45068359 13.42421875 12.20800781 13.8359375 12.98828125 C14.20251465 13.68477783 14.5690918 14.38127441 14.94677734 15.09887695 C15.87953389 16.78255225 16.93232138 18.39848207 18 20 C22.47821202 13.56852529 26.34667572 6.9309521 30 0 C32.31 0 34.62 0 37 0 C35.2851719 4.87321205 32.69148004 9.14293038 30.0625 13.5625 C29.61970703 14.31724609 29.17691406 15.07199219 28.72070312 15.84960938 C25.23474816 21.74612038 25.23474816 21.74612038 23.2265625 23.91796875 C21.09438385 27.53724016 21.41903055 31.62878959 21.3125 35.75 C21.27833984 36.63816406 21.24417969 37.52632812 21.20898438 38.44140625 C21.12671286 40.62747803 21.05749828 42.81315951 21 45 C19.02 45 17.04 45 15 45 C15.0309375 43.16888672 15.0309375 43.16888672 15.0625 41.30078125 C15.00987413 29.28739642 13.13176303 22.80779797 6 13 C4.79867376 10.95749354 3.62920956 8.89574342 2.5 6.8125 C1.77296875 5.49185547 1.77296875 5.49185547 1.03125 4.14453125 C0 2 0 2 0 0 Z " fill="#077FC0" transform="translate(987,498)"/>
<path d="M0 0 C14.87996971 -0.45550928 14.87996971 -0.45550928 20.9375 4.625 C22.60648364 8.35566932 22.12989568 12.11687752 21 16 C18.83668174 18.87762145 16.41241697 19.97773529 13 21 C8.64859444 21.2550648 4.3638826 21.08815924 0 21 C0 14.07 0 7.14 0 0 Z " fill="#F9FCFD" transform="translate(991,1451)"/>
<path d="M0 0 C0.66 1.65 1.32 3.3 2 5 C-4.84637801 9.38805846 -11.89451603 13.36093933 -19 17.3125 C-20.16807275 17.96400628 -21.33604227 18.61569768 -22.50390625 19.26757812 C-25.33493135 20.84686898 -28.16697969 22.42429197 -31 24 C-29.29966584 29.32298544 -26.95161857 33.65721178 -24.046875 38.4140625 C-23 41 -23 41 -23.828125 43.3359375 C-24.21484375 43.88507812 -24.6015625 44.43421875 -25 45 C-25.99 45 -26.98 45 -28 45 C-30.03725091 41.40487752 -32.05190401 37.79758689 -34.0625 34.1875 C-34.64322266 33.16333984 -35.22394531 32.13917969 -35.82226562 31.08398438 C-36.36689453 30.10107422 -36.91152344 29.11816406 -37.47265625 28.10546875 C-37.98062744 27.19949951 -38.48859863 26.29353027 -39.01196289 25.36010742 C-40 23 -40 23 -39 20 C-36.65844727 18.46948242 -36.65844727 18.46948242 -33.56640625 16.85546875 C-32.44169922 16.26056641 -31.31699219 15.66566406 -30.15820312 15.05273438 C-28.95989524 14.43048897 -27.76132595 13.80874671 -26.5625 13.1875 C-24.25007346 11.97499655 -21.93885773 10.76018085 -19.62890625 9.54296875 C-18.50887207 8.95435059 -17.38883789 8.36573242 -16.23486328 7.75927734 C-12.39487857 5.67090528 -8.68756527 3.41090617 -5.00366211 1.05981445 C-3 0 -3 0 0 0 Z " fill="#0B81C1" transform="translate(1386,719)"/>
<path d="M0 0 C2.31 0 4.62 0 7 0 C7 17.49 7 34.98 7 53 C4.69 53 2.38 53 0 53 C0 35.51 0 18.02 0 0 Z " fill="#017CBF" transform="translate(1030,1445)"/>
<path d="M0 0 C2.75026417 -0.05404449 5.49946203 -0.09369306 8.25 -0.125 C9.02730469 -0.14175781 9.80460937 -0.15851563 10.60546875 -0.17578125 C17.96292928 -0.23866553 17.96292928 -0.23866553 21 2 C22.56935594 5.13871188 22.35201103 7.53855822 22 11 C19.99738677 13.7521061 18.44858057 15.71229482 14.99511719 16.39819336 C12.70616531 16.4918323 10.47476642 16.43712055 8.1875 16.3125 C7.39923828 16.28994141 6.61097656 16.26738281 5.79882812 16.24414062 C3.86506071 16.18554161 1.93227833 16.09586827 0 16 C0 10.72 0 5.44 0 0 Z " fill="#F4F9FC" transform="translate(1232,1364)"/>
<path d="M0 0 C5.87830438 0.29391522 10.01385333 2.80702497 14 7 C15.3125 10.5 15.3125 10.5 15 14 C12.64105642 18.40336134 12.64105642 18.40336134 10 20 C3.84120487 20.85028142 -1.00145125 18.29691513 -6 15 C-5.39644592 11.14974121 -4.23227397 8.13898841 -2.4375 4.6875 C-1.98246094 3.80449219 -1.52742188 2.92148437 -1.05859375 2.01171875 C-0.53458984 1.01591797 -0.53458984 1.01591797 0 0 Z " fill="#F5FAFC" transform="translate(1183,544)"/>
<path d="M0 0 C5.17289068 1.63893566 9.13183938 4.81155028 13.4375 8 C15.03750444 9.17092277 16.63776827 10.34149118 18.23828125 11.51171875 C19.43251709 12.38836182 19.43251709 12.38836182 20.65087891 13.28271484 C24.12243733 15.82053879 27.62171543 18.31874535 31.125 20.8125 C32.27343908 21.63150821 33.42187675 22.45051838 34.5703125 23.26953125 C35.37210938 23.84058594 36.17390625 24.41164063 37 25 C36.49396008 27.16874252 36.00016187 28.99967627 35 31 C31.54680939 29.73868422 28.78164238 28.30231336 25.84765625 26.09375 C25.07719971 25.51898926 24.30674316 24.94422852 23.51293945 24.35205078 C22.70429443 23.74087402 21.89564941 23.12969727 21.0625 22.5 C19.37042303 21.23613345 17.67770858 19.97311993 15.984375 18.7109375 C15.14712891 18.08541992 14.30988281 17.45990234 13.44726562 16.81542969 C9.93304423 14.20851127 6.37914143 11.65952609 2.8125 9.125 C2.21896729 8.70283203 1.62543457 8.28066406 1.01391602 7.84570312 C-0.32315444 6.89586504 -1.66141829 5.94770712 -3 5 C-2.01 3.35 -1.02 1.7 0 0 Z " fill="#0C81C1" transform="translate(637,682)"/>
<path d="M0 0 C3.1875 2.125 3.1875 2.125 5 5 C5.70876118 8.78005961 5.33531662 10.40984276 3.4375 13.75 C-1.12830223 17.96458667 -6.04223191 18.09230345 -12 18 C-12.50377768 15.73000175 -13.00290019 13.45896997 -13.5 11.1875 C-13.91765625 9.29064453 -13.91765625 9.29064453 -14.34375 7.35546875 C-15 4 -15 4 -15 1 C-10.04779978 -0.42157277 -5.1043769 -0.6644751 0 0 Z " fill="#F9FBFD" transform="translate(921,511)"/>
<path d="M0 0 C5.43103448 1.55172414 5.43103448 1.55172414 7.5 5 C8.00768324 11.44757721 5.59543553 16.50809826 2.5 22 C-1.19876091 20.62712658 -4.4514476 18.93644547 -7.8125 16.875 C-8.69550781 16.33617187 -9.57851563 15.79734375 -10.48828125 15.2421875 C-11.15214844 14.83226562 -11.81601562 14.42234375 -12.5 14 C-11.13419042 7.59862985 -7.04090436 0 0 0 Z " fill="#F8FBFD" transform="translate(623.5,721)"/>
<path d="M0 0 C0.66 0 1.32 0 2 0 C3.34065238 3.93504649 4.67126071 7.87341646 6 11.8125 C6.3815625 12.93205078 6.763125 14.05160156 7.15625 15.20507812 C7.69765625 16.81479492 7.69765625 16.81479492 8.25 18.45703125 C8.58515625 19.44678955 8.9203125 20.43654785 9.265625 21.45629883 C10 24 10 24 10 27 C4.06 27 -1.88 27 -8 27 C-6.68764148 20.63569826 -4.98780585 14.57878972 -2.875 8.4375 C-2.59785156 7.61958984 -2.32070312 6.80167969 -2.03515625 5.95898438 C-1.36094863 3.97123432 -0.68107796 1.98540651 0 0 Z " fill="#F5FAFC" transform="translate(1160,1364)"/>
<path d="M0 0 C2.22859692 2.22859692 2.84283838 3.82373248 3.9453125 6.75390625 C4.29980469 7.69041016 4.65429688 8.62691406 5.01953125 9.59179688 C5.38433594 10.57212891 5.74914063 11.55246094 6.125 12.5625 C6.68380859 14.03879883 6.68380859 14.03879883 7.25390625 15.54492188 C10 22.84269116 10 22.84269116 10 24 C3.73 24 -2.54 24 -9 24 C-7.61080996 17.74864482 -6.44299467 13.16352603 -3.9375 7.5 C-3.41027344 6.2934375 -2.88304687 5.086875 -2.33984375 3.84375 C-1 1 -1 1 0 0 Z " fill="#F6FAFC" transform="translate(1112,1454)"/>
<path d="M0 0 C-1.58854341 4.51526198 -3.92294266 8.31517942 -6.5 12.3125 C-6.90347656 12.95767578 -7.30695313 13.60285156 -7.72265625 14.26757812 C-8.75845742 15.88281262 -9.87340548 17.44672883 -11 19 C-11.66 19 -12.32 19 -13 19 C-14.9453125 16.69921875 -14.9453125 16.69921875 -17.125 13.6875 C-17.84945313 12.70136719 -18.57390625 11.71523438 -19.3203125 10.69921875 C-21 8 -21 8 -21 5 C-18.06377536 4.16193384 -15.12617933 3.32937556 -12.1875 2.5 C-11.35412109 2.26152344 -10.52074219 2.02304687 -9.66210938 1.77734375 C-8.45844727 1.43896484 -8.45844727 1.43896484 -7.23046875 1.09375 C-6.49207764 0.88427734 -5.75368652 0.67480469 -4.99291992 0.45898438 C-3 0 -3 0 0 0 Z " fill="#F1F8FB" transform="translate(1353,684)"/>
<path d="M0 0 C7.59 0 15.18 0 23 0 C21.02 4.95 19.04 9.9 17 15 C13.88399025 13.44199513 12.19485545 12.46879588 9.765625 10.21484375 C8.90517578 9.41916992 8.90517578 9.41916992 8.02734375 8.60742188 C7.44082031 8.05634766 6.85429688 7.50527344 6.25 6.9375 C5.64800781 6.38255859 5.04601562 5.82761719 4.42578125 5.25585938 C2.92768667 3.86137451 1.46087426 2.43343009 0 1 C0 0.67 0 0.34 0 0 Z " fill="#F7FBFD" transform="translate(590,783)"/>
</svg>
